<svg xmlns="http://www.w3.org/2000/svg" viewBox="0 0 640 380" font-family="Inter, sans-serif">
  <rect width="640" height="380" fill="#ffffff" rx="10"/>
  <g stroke="#e7e3dc" stroke-width="1">
    <line x1="70" y1="40" x2="70" y2="320"/>
    <line x1="70" y1="320" x2="600" y2="320"/>
    <line x1="70" y1="250" x2="600" y2="250" stroke-dasharray="4 4"/>
    <line x1="70" y1="180" x2="600" y2="180" stroke-dasharray="4 4"/>
    <line x1="70" y1="110" x2="600" y2="110" stroke-dasharray="4 4"/>
  </g>
  <path d="M70,300 C160,200 230,120 320,95 S480,70 600,62" fill="none" stroke="#a9ddc8" stroke-width="3"/>
  <path d="M70,305 C160,230 230,150 320,128 S480,108 600,104" fill="none" stroke="#a9cdec" stroke-width="3" stroke-dasharray="6 5"/>
  <text x="335" y="358" text-anchor="middle" fill="#847e90" font-size="14">training step</text>
  <text x="30" y="180" text-anchor="middle" fill="#847e90" font-size="14" transform="rotate(-90 30 180)">accuracy</text>
  <g font-size="13">
    <rect x="430" y="290" width="14" height="3" fill="#a9ddc8"/>
    <text x="452" y="295" fill="#57525f">train</text>
    <rect x="430" y="313" width="14" height="3" fill="#a9cdec"/>
    <text x="452" y="318" fill="#57525f">validation</text>
  </g>
</svg>
