<svg xmlns="http://www.w3.org/2000/svg" viewBox="0 0 640 380" font-family="Inter, sans-serif">
  <rect width="640" height="380" fill="#ffffff" rx="10"/>
  <g stroke="#e7e3dc" stroke-width="1">
    <line x1="70" y1="40" x2="70" y2="320"/>
    <line x1="70" y1="320" x2="600" y2="320"/>
    <line x1="70" y1="250" x2="600" y2="250" stroke-dasharray="4 4"/>
    <line x1="70" y1="180" x2="600" y2="180" stroke-dasharray="4 4"/>
    <line x1="70" y1="110" x2="600" y2="110" stroke-dasharray="4 4"/>
  </g>
  <path d="M70,70 C150,90 200,200 260,250 S400,300 600,308" fill="none" stroke="#b8a9e6" stroke-width="3"/>
  <path d="M70,95 C150,130 210,230 270,270 S410,308 600,314" fill="none" stroke="#f0b6cd" stroke-width="3" stroke-dasharray="6 5"/>
  <text x="335" y="358" text-anchor="middle" fill="#847e90" font-size="14">training step</text>
  <text x="30" y="180" text-anchor="middle" fill="#847e90" font-size="14" transform="rotate(-90 30 180)">loss</text>
  <g font-size="13">
    <rect x="430" y="55" width="14" height="3" fill="#b8a9e6"/>
    <text x="452" y="60" fill="#57525f">train</text>
    <rect x="430" y="78" width="14" height="3" fill="#f0b6cd"/>
    <text x="452" y="83" fill="#57525f">validation</text>
  </g>
</svg>
