<svg xmlns="http://www.w3.org/2000/svg" viewBox="0 0 1600 900" width="1600" height="900" preserveAspectRatio="xMidYMid slice">
  <defs>
    <!-- colour cosmos blobs -->
    <radialGradient id="b-rose" cx="38%" cy="58%" r="42%">
      <stop offset="0%" stop-color="#a95d51" stop-opacity="0.16"/>
      <stop offset="100%" stop-color="#a95d51" stop-opacity="0"/>
    </radialGradient>
    <radialGradient id="b-teal" cx="62%" cy="40%" r="40%">
      <stop offset="0%" stop-color="#3f7f79" stop-opacity="0.13"/>
      <stop offset="100%" stop-color="#3f7f79" stop-opacity="0"/>
    </radialGradient>
    <radialGradient id="b-lavi" cx="50%" cy="50%" r="52%">
      <stop offset="0%" stop-color="#7267a0" stop-opacity="0.11"/>
      <stop offset="100%" stop-color="#7267a0" stop-opacity="0"/>
    </radialGradient>
    <radialGradient id="b-amb" cx="55%" cy="62%" r="30%">
      <stop offset="0%" stop-color="#9a7828" stop-opacity="0.07"/>
      <stop offset="100%" stop-color="#9a7828" stop-opacity="0"/>
    </radialGradient>
    <!-- edge vignette to paper -->
    <radialGradient id="vig" cx="50%" cy="50%" r="62%" gradientUnits="objectBoundingBox">
      <stop offset="0%"   stop-color="#f8f5ee" stop-opacity="0"/>
      <stop offset="62%"  stop-color="#f8f5ee" stop-opacity="0.05"/>
      <stop offset="88%"  stop-color="#f8f5ee" stop-opacity="0.72"/>
      <stop offset="100%" stop-color="#f8f5ee" stop-opacity="0.96"/>
    </radialGradient>
    <!-- glow for center dots -->
    <filter id="glow" x="-100%" y="-100%" width="300%" height="300%">
      <feGaussianBlur stdDeviation="3" result="blur"/>
      <feComposite in="SourceGraphic" in2="blur" operator="over"/>
    </filter>
  </defs>

  <!-- paper ground -->
  <rect width="1600" height="900" fill="#f8f5ee"/>

  <!-- colour cosmos -->
  <rect width="1600" height="900" fill="url(#b-lavi)"/>
  <rect width="1600" height="900" fill="url(#b-teal)"/>
  <rect width="1600" height="900" fill="url(#b-rose)"/>
  <rect width="1600" height="900" fill="url(#b-amb)"/>

  <!-- fine grid (behind) -->
  <g id="fine-grid">
    <path d="M 168.2,141.9 L 182.2,141.9 L 196.3,141.9 L 210.3,141.9 L 224.4,141.9 L 238.4,141.9 L 252.4,141.9 L 266.5,141.9 L 280.5,141.9 L 294.6,141.9 L 308.6,141.9 L 322.6,141.9 L 336.7,141.9 L 350.7,141.9 L 364.8,141.9 L 378.8,141.8 L 392.9,141.8 L 407.0,141.8 L 421.0,141.7 L 435.1,141.7 L 449.3,141.6 L 463.4,141.5 L 477.6,141.4 L 491.8,141.2 L 506.0,141.1 L 520.4,140.8 L 534.8,140.6 L 549.2,140.3 L 563.8,140.0 L 578.5,139.6 L 593.3,139.3 L 608.2,138.9 L 623.2,138.6 L 638.3,138.3 L 653.4,138.1 L 668.7,137.9 L 684.0,137.9 L 699.3,137.9 L 714.6,138.1 L 729.8,138.4 L 745.0,138.8 L 759.9,139.4 L 774.8,140.1 L 789.4,140.8 L 803.7,141.6 L 817.9,142.4 L 831.8,143.2 L 845.4,144.0 L 858.9,144.7 L 872.1,145.2 L 885.2,145.7 L 898.1,146.0 L 911.0,146.2 L 923.8,146.3 L 936.6,146.3 L 949.4,146.2 L 962.2,145.9 L 975.1,145.6 L 988.1,145.3 L 1001.2,144.9 L 1014.4,144.6 L 1027.7,144.2 L 1041.2,143.8 L 1054.7,143.5 L 1068.3,143.2 L 1082.0,143.0 L 1095.7,142.7 L 1109.5,142.6 L 1123.4,142.4 L 1137.3,142.3 L 1151.3,142.2 L 1165.2,142.1 L 1179.2,142.1 L 1193.2,142.0 L 1207.2,142.0 L 1221.2,142.0 L 1235.3,141.9 L 1249.3,141.9 L 1263.3,141.9 L 1277.4,141.9 L 1291.4,141.9 L 1305.4,141.9 L 1319.5,141.9 L 1333.5,141.9 L 1347.6,141.9 L 1361.6,141.9 L 1375.6,141.9 L 1389.7,141.9 L 1403.7,141.9 L 1417.8,141.9 L 1431.8,141.9" stroke="#6f689e" stroke-width="0.19" fill="none" opacity="0.08" stroke-dasharray="0.8 14.0"/>
    <path d="M 168.2,212.1 L 182.2,212.1 L 196.3,212.1 L 210.3,212.1 L 224.4,212.1 L 238.4,212.1 L 252.4,212.1 L 266.5,212.1 L 280.5,212.1 L 294.6,212.1 L 308.6,212.1 L 322.7,212.1 L 336.7,212.0 L 350.8,212.0 L 364.8,212.0 L 378.9,211.9 L 393.0,211.8 L 407.1,211.7 L 421.3,211.5 L 435.5,211.3 L 449.7,211.0 L 464.1,210.7 L 478.5,210.2 L 493.0,209.6 L 507.7,208.9 L 522.6,208.1 L 537.7,207.2 L 553.1,206.1 L 568.7,204.9 L 584.6,203.7 L 600.8,202.4 L 617.4,201.2 L 634.3,200.1 L 651.5,199.1 L 669.0,198.4 L 686.7,198.1 L 704.5,198.1 L 722.3,198.7 L 740.0,199.7 L 757.5,201.2 L 774.6,203.3 L 791.3,205.7 L 807.3,208.5 L 822.8,211.5 L 837.6,214.7 L 851.6,217.8 L 865.0,220.7 L 877.7,223.4 L 889.8,225.7 L 901.4,227.6 L 912.6,229.0 L 923.5,229.9 L 934.2,230.3 L 944.7,230.3 L 955.2,229.8 L 965.8,229.0 L 976.5,228.0 L 987.4,226.7 L 998.5,225.3 L 1009.9,223.8 L 1021.6,222.3 L 1033.5,220.8 L 1045.8,219.5 L 1058.4,218.2 L 1071.1,217.1 L 1084.2,216.1 L 1097.4,215.3 L 1110.8,214.6 L 1124.3,214.0 L 1138.0,213.6 L 1151.7,213.2 L 1165.6,212.9 L 1179.4,212.7 L 1193.4,212.5 L 1207.3,212.4 L 1221.3,212.3 L 1235.3,212.2 L 1249.3,212.2 L 1263.4,212.2 L 1277.4,212.1 L 1291.4,212.1 L 1305.4,212.1 L 1319.5,212.1 L 1333.5,212.1 L 1347.6,212.1 L 1361.6,212.1 L 1375.6,212.1 L 1389.7,212.1 L 1403.7,212.1 L 1417.8,212.1 L 1431.8,212.1" stroke="#6a6a9a" stroke-width="0.22" fill="none" opacity="0.09" stroke-dasharray="0.8 12.5"/>
    <path d="M 168.2,282.3 L 182.2,282.3 L 196.3,282.3 L 210.3,282.3 L 224.4,282.3 L 238.4,282.3 L 252.4,282.3 L 266.5,282.3 L 280.5,282.3 L 294.6,282.3 L 308.6,282.2 L 322.7,282.2 L 336.7,282.1 L 350.8,282.1 L 364.9,281.9 L 379.0,281.8 L 393.2,281.5 L 407.3,281.2 L 421.6,280.8 L 435.9,280.2 L 450.4,279.4 L 465.0,278.4 L 479.8,277.2 L 494.8,275.7 L 510.1,273.8 L 525.8,271.7 L 541.9,269.2 L 558.6,266.4 L 575.8,263.4 L 593.6,260.3 L 612.2,257.1 L 631.5,254.2 L 651.4,251.6 L 672.0,249.7 L 693.2,248.6 L 714.6,248.6 L 736.2,249.9 L 757.6,252.7 L 778.5,256.8 L 798.6,262.3 L 817.7,269.1 L 835.5,276.7 L 851.9,285.1 L 866.8,293.7 L 880.4,302.2 L 892.7,310.3 L 903.9,317.6 L 914.1,324.0 L 923.7,329.2 L 932.7,333.1 L 941.3,335.6 L 949.7,336.9 L 958.0,336.8 L 966.3,335.7 L 974.7,333.5 L 983.2,330.6 L 991.9,327.0 L 1000.9,323.0 L 1010.2,318.7 L 1019.9,314.4 L 1030.0,310.1 L 1040.6,306.1 L 1051.6,302.3 L 1063.0,298.9 L 1074.8,295.8 L 1087.0,293.2 L 1099.6,290.9 L 1112.4,289.0 L 1125.5,287.4 L 1138.9,286.2 L 1152.4,285.2 L 1166.0,284.4 L 1179.8,283.8 L 1193.6,283.4 L 1207.5,283.1 L 1221.4,282.8 L 1235.4,282.7 L 1249.4,282.5 L 1263.4,282.5 L 1277.4,282.4 L 1291.4,282.4 L 1305.5,282.3 L 1319.5,282.3 L 1333.5,282.3 L 1347.6,282.3 L 1361.6,282.3 L 1375.6,282.3 L 1389.7,282.3 L 1403.7,282.3 L 1417.8,282.3 L 1431.8,282.3" stroke="#646d96" stroke-width="0.35" fill="none" opacity="0.16" stroke-dasharray="2.0 7.1"/>
    <path d="M 168.2,352.5 L 182.2,352.5 L 196.3,352.5 L 210.3,352.5 L 224.4,352.5 L 238.4,352.5 L 252.4,352.5 L 266.5,352.5 L 280.5,352.4 L 294.6,352.4 L 308.6,352.4 L 322.7,352.3 L 336.7,352.2 L 350.8,352.0 L 364.9,351.8 L 379.0,351.5 L 393.2,351.0 L 407.4,350.4 L 421.7,349.6 L 436.1,348.5 L 450.6,347.0 L 465.3,345.1 L 480.2,342.8 L 495.4,339.9 L 511.0,336.4 L 527.0,332.3 L 543.7,327.6 L 561.1,322.4 L 579.3,316.7 L 598.5,310.9 L 618.7,305.2 L 640.0,299.9 L 662.3,295.5 L 685.6,292.5 L 709.4,291.4 L 733.5,292.6 L 757.2,296.2 L 780.0,302.6 L 801.3,311.6 L 820.5,322.8 L 837.4,335.8 L 851.7,350.1 L 863.5,364.9 L 873.1,379.7 L 881.0,393.9 L 887.6,407.1 L 893.5,419.0 L 899.3,429.4 L 905.5,437.9 L 912.4,444.6 L 920.1,449.3 L 928.8,451.9 L 938.4,452.4 L 948.7,450.9 L 959.6,447.6 L 970.8,442.6 L 982.1,436.4 L 993.5,429.2 L 1005.0,421.5 L 1016.3,413.4 L 1027.8,405.4 L 1039.3,397.8 L 1050.9,390.6 L 1062.7,384.1 L 1074.8,378.3 L 1087.2,373.2 L 1099.8,368.9 L 1112.6,365.3 L 1125.7,362.3 L 1139.0,359.9 L 1152.5,358.0 L 1166.1,356.6 L 1179.8,355.4 L 1193.6,354.6 L 1207.5,354.0 L 1221.4,353.5 L 1235.4,353.2 L 1249.4,353.0 L 1263.4,352.8 L 1277.4,352.7 L 1291.4,352.6 L 1305.5,352.6 L 1319.5,352.6 L 1333.5,352.5 L 1347.6,352.5 L 1361.6,352.5 L 1375.6,352.5 L 1389.7,352.5 L 1403.7,352.5 L 1417.8,352.5 L 1431.8,352.5" stroke="#5f6f92" stroke-width="0.47" fill="none" opacity="0.23" stroke-dasharray="4.8 3.3"/>
    <path d="M 168.2,418.8 L 182.2,418.8 L 196.3,418.8 L 210.3,418.8 L 224.4,418.8 L 238.4,418.8 L 252.4,418.8 L 266.5,418.8 L 280.5,418.7 L 294.6,418.7 L 308.6,418.6 L 322.7,418.5 L 336.7,418.4 L 350.8,418.2 L 364.8,417.9 L 378.9,417.4 L 393.0,416.8 L 407.1,416.0 L 421.3,414.9 L 435.5,413.4 L 449.7,411.4 L 464.1,408.9 L 478.6,405.7 L 493.3,401.8 L 508.3,397.1 L 523.6,391.5 L 539.4,385.1 L 555.8,377.9 L 573.0,370.0 L 591.1,361.8 L 610.2,353.6 L 630.4,345.8 L 651.8,339.0 L 674.0,333.9 L 696.7,331.0 L 719.4,330.8 L 741.5,333.7 L 762.1,339.8 L 780.5,348.8 L 796.1,360.3 L 808.5,373.7 L 817.8,388.3 L 824.0,403.4 L 827.9,418.6 L 829.9,433.4 L 831.1,447.8 L 832.2,461.4 L 834.2,474.4 L 837.6,486.6 L 843.0,497.7 L 851.0,507.5 L 861.4,515.5 L 874.4,521.4 L 889.3,524.9 L 905.9,525.7 L 923.4,523.8 L 941.4,519.6 L 959.2,513.3 L 976.7,505.4 L 993.5,496.6 L 1009.6,487.3 L 1025.1,477.9 L 1040.0,468.9 L 1054.4,460.6 L 1068.6,453.0 L 1082.5,446.4 L 1096.3,440.7 L 1110.1,435.9 L 1123.9,431.9 L 1137.7,428.7 L 1151.6,426.2 L 1165.5,424.2 L 1179.4,422.7 L 1193.3,421.6 L 1207.3,420.8 L 1221.3,420.2 L 1235.3,419.7 L 1249.3,419.4 L 1263.3,419.2 L 1277.4,419.1 L 1291.4,419.0 L 1305.4,418.9 L 1319.5,418.9 L 1333.5,418.8 L 1347.6,418.8 L 1361.6,418.8 L 1375.6,418.8 L 1389.7,418.8 L 1403.7,418.8 L 1417.8,418.8 L 1431.8,418.8" stroke="#5a718e" stroke-width="0.58" fill="none" opacity="0.29" />
    <path d="M 168.2,481.2 L 182.2,481.2 L 196.3,481.2 L 210.3,481.2 L 224.4,481.2 L 238.4,481.2 L 252.4,481.2 L 266.5,481.2 L 280.5,481.1 L 294.6,481.1 L 308.6,481.0 L 322.6,480.9 L 336.7,480.8 L 350.7,480.6 L 364.7,480.3 L 378.7,479.8 L 392.7,479.2 L 406.7,478.4 L 420.6,477.3 L 434.5,475.8 L 448.4,473.8 L 462.3,471.3 L 476.1,468.1 L 489.9,464.1 L 503.7,459.3 L 517.5,453.6 L 531.4,447.0 L 545.6,439.4 L 560.0,431.1 L 574.9,422.1 L 590.4,412.7 L 606.5,403.4 L 623.3,394.6 L 640.8,386.7 L 658.6,380.4 L 676.6,376.2 L 694.1,374.3 L 710.7,375.1 L 725.6,378.6 L 738.6,384.5 L 749.0,392.5 L 757.0,402.3 L 762.4,413.4 L 765.8,425.6 L 767.8,438.6 L 768.9,452.2 L 770.1,466.6 L 772.1,481.4 L 776.0,496.6 L 782.2,511.7 L 791.5,526.3 L 803.9,539.7 L 819.5,551.2 L 837.9,560.2 L 858.5,566.3 L 880.6,569.2 L 903.3,569.0 L 926.0,566.1 L 948.2,561.0 L 969.6,554.2 L 989.8,546.4 L 1008.9,538.2 L 1027.0,530.0 L 1044.2,522.1 L 1060.6,514.9 L 1076.4,508.5 L 1091.7,502.9 L 1106.7,498.2 L 1121.4,494.3 L 1135.9,491.1 L 1150.3,488.6 L 1164.5,486.6 L 1178.7,485.1 L 1192.9,484.0 L 1207.0,483.2 L 1221.1,482.6 L 1235.2,482.1 L 1249.2,481.8 L 1263.3,481.6 L 1277.3,481.5 L 1291.4,481.4 L 1305.4,481.3 L 1319.5,481.3 L 1333.5,481.2 L 1347.6,481.2 L 1361.6,481.2 L 1375.6,481.2 L 1389.7,481.2 L 1403.7,481.2 L 1417.8,481.2 L 1431.8,481.2" stroke="#487b75" stroke-width="0.58" fill="none" opacity="0.29" />
    <path d="M 168.2,547.5 L 182.2,547.5 L 196.3,547.5 L 210.3,547.5 L 224.4,547.5 L 238.4,547.5 L 252.4,547.5 L 266.5,547.5 L 280.5,547.4 L 294.5,547.4 L 308.6,547.4 L 322.6,547.3 L 336.6,547.2 L 350.6,547.0 L 364.6,546.8 L 378.6,546.5 L 392.5,546.0 L 406.4,545.4 L 420.2,544.6 L 433.9,543.4 L 447.5,542.0 L 461.0,540.1 L 474.3,537.7 L 487.4,534.7 L 500.2,531.1 L 512.8,526.8 L 525.2,521.7 L 537.3,515.9 L 549.1,509.4 L 560.7,502.2 L 572.2,494.6 L 583.7,486.6 L 595.0,478.5 L 606.5,470.8 L 617.9,463.6 L 629.2,457.4 L 640.4,452.4 L 651.3,449.1 L 661.6,447.6 L 671.2,448.1 L 679.9,450.7 L 687.6,455.4 L 694.5,462.1 L 700.7,470.6 L 706.5,481.0 L 712.4,492.9 L 719.0,506.1 L 726.9,520.3 L 736.5,535.1 L 748.3,549.9 L 762.6,564.2 L 779.5,577.2 L 798.7,588.4 L 820.0,597.4 L 842.8,603.8 L 866.5,607.4 L 890.6,608.6 L 914.4,607.5 L 937.7,604.5 L 960.0,600.1 L 981.3,594.8 L 1001.5,589.1 L 1020.7,583.3 L 1038.9,577.6 L 1056.3,572.4 L 1073.0,567.7 L 1089.0,563.6 L 1104.6,560.1 L 1119.8,557.2 L 1134.7,554.9 L 1149.4,553.0 L 1163.9,551.5 L 1178.3,550.4 L 1192.6,549.6 L 1206.8,549.0 L 1221.0,548.5 L 1235.1,548.2 L 1249.2,548.0 L 1263.3,547.8 L 1277.3,547.7 L 1291.4,547.6 L 1305.4,547.6 L 1319.5,547.6 L 1333.5,547.5 L 1347.6,547.5 L 1361.6,547.5 L 1375.6,547.5 L 1389.7,547.5 L 1403.7,547.5 L 1417.8,547.5 L 1431.8,547.5" stroke="#5d756d" stroke-width="0.47" fill="none" opacity="0.23" stroke-dasharray="4.8 3.3"/>
    <path d="M 168.2,617.7 L 182.2,617.7 L 196.3,617.7 L 210.3,617.7 L 224.4,617.7 L 238.4,617.7 L 252.4,617.7 L 266.5,617.7 L 280.5,617.7 L 294.5,617.7 L 308.6,617.6 L 322.6,617.6 L 336.6,617.5 L 350.6,617.5 L 364.6,617.3 L 378.6,617.2 L 392.5,616.9 L 406.4,616.6 L 420.2,616.2 L 434.0,615.6 L 447.6,614.8 L 461.1,613.8 L 474.5,612.6 L 487.6,611.0 L 500.4,609.1 L 513.0,606.8 L 525.2,604.2 L 537.0,601.1 L 548.4,597.7 L 559.4,593.9 L 570.0,589.9 L 580.1,585.6 L 589.8,581.3 L 599.1,577.0 L 608.1,573.0 L 616.8,569.4 L 625.3,566.5 L 633.7,564.3 L 642.0,563.2 L 650.3,563.1 L 658.7,564.4 L 667.3,566.9 L 676.3,570.8 L 685.9,576.0 L 696.1,582.4 L 707.3,589.7 L 719.6,597.8 L 733.2,606.3 L 748.1,614.9 L 764.5,623.3 L 782.3,630.9 L 801.4,637.7 L 821.5,643.2 L 842.4,647.3 L 863.8,650.1 L 885.4,651.4 L 906.8,651.4 L 928.0,650.3 L 948.6,648.4 L 968.5,645.8 L 987.8,642.9 L 1006.4,639.7 L 1024.2,636.6 L 1041.4,633.6 L 1058.1,630.8 L 1074.2,628.3 L 1089.9,626.2 L 1105.2,624.3 L 1120.2,622.8 L 1135.0,621.6 L 1149.6,620.6 L 1164.1,619.8 L 1178.4,619.2 L 1192.7,618.8 L 1206.8,618.5 L 1221.0,618.2 L 1235.1,618.1 L 1249.2,617.9 L 1263.3,617.9 L 1277.3,617.8 L 1291.4,617.8 L 1305.4,617.7 L 1319.5,617.7 L 1333.5,617.7 L 1347.6,617.7 L 1361.6,617.7 L 1375.6,617.7 L 1389.7,617.7 L 1403.7,617.7 L 1417.8,617.7 L 1431.8,617.7" stroke="#726e65" stroke-width="0.35" fill="none" opacity="0.16" stroke-dasharray="2.0 7.1"/>
    <path d="M 168.2,687.9 L 182.2,687.9 L 196.3,687.9 L 210.3,687.9 L 224.4,687.9 L 238.4,687.9 L 252.4,687.9 L 266.5,687.9 L 280.5,687.9 L 294.6,687.9 L 308.6,687.9 L 322.6,687.9 L 336.6,687.8 L 350.7,687.8 L 364.7,687.8 L 378.7,687.7 L 392.7,687.6 L 406.6,687.5 L 420.6,687.3 L 434.4,687.1 L 448.3,686.8 L 462.0,686.4 L 475.7,686.0 L 489.2,685.4 L 502.6,684.7 L 515.8,683.9 L 528.9,682.9 L 541.6,681.8 L 554.2,680.5 L 566.5,679.2 L 578.4,677.7 L 590.1,676.2 L 601.5,674.7 L 612.6,673.3 L 623.5,672.0 L 634.2,671.0 L 644.8,670.2 L 655.3,669.7 L 665.8,669.7 L 676.5,670.1 L 687.4,671.0 L 698.6,672.4 L 710.2,674.3 L 722.3,676.6 L 735.0,679.3 L 748.4,682.2 L 762.4,685.3 L 777.2,688.5 L 792.7,691.5 L 808.7,694.3 L 825.4,696.7 L 842.5,698.8 L 860.0,700.3 L 877.7,701.3 L 895.5,701.9 L 913.3,701.9 L 931.0,701.6 L 948.5,700.9 L 965.7,699.9 L 982.6,698.8 L 999.2,697.6 L 1015.4,696.3 L 1031.3,695.1 L 1046.9,693.9 L 1062.3,692.8 L 1077.4,691.9 L 1092.3,691.1 L 1107.0,690.4 L 1121.5,689.8 L 1135.9,689.3 L 1150.3,689.0 L 1164.5,688.7 L 1178.7,688.5 L 1192.9,688.3 L 1207.0,688.2 L 1221.1,688.1 L 1235.2,688.0 L 1249.2,688.0 L 1263.3,688.0 L 1277.3,687.9 L 1291.4,687.9 L 1305.4,687.9 L 1319.5,687.9 L 1333.5,687.9 L 1347.6,687.9 L 1361.6,687.9 L 1375.6,687.9 L 1389.7,687.9 L 1403.7,687.9 L 1417.8,687.9 L 1431.8,687.9" stroke="#88675d" stroke-width="0.22" fill="none" opacity="0.09" stroke-dasharray="0.8 12.5"/>
    <path d="M 168.2,758.1 L 182.2,758.1 L 196.3,758.1 L 210.3,758.1 L 224.4,758.1 L 238.4,758.1 L 252.4,758.1 L 266.5,758.1 L 280.5,758.1 L 294.6,758.1 L 308.6,758.1 L 322.6,758.1 L 336.7,758.1 L 350.7,758.1 L 364.7,758.1 L 378.8,758.0 L 392.8,758.0 L 406.8,758.0 L 420.8,757.9 L 434.8,757.9 L 448.7,757.8 L 462.7,757.7 L 476.6,757.6 L 490.5,757.4 L 504.3,757.3 L 518.0,757.0 L 531.7,756.8 L 545.3,756.5 L 558.8,756.2 L 572.3,755.8 L 585.6,755.4 L 598.8,755.1 L 611.9,754.7 L 624.9,754.4 L 637.8,754.1 L 650.6,753.8 L 663.4,753.7 L 676.2,753.7 L 689.0,753.8 L 701.9,754.0 L 714.8,754.3 L 727.9,754.8 L 741.1,755.3 L 754.6,756.0 L 768.2,756.8 L 782.1,757.6 L 796.3,758.4 L 810.6,759.2 L 825.2,759.9 L 840.1,760.6 L 855.0,761.2 L 870.2,761.6 L 885.4,761.9 L 900.7,762.1 L 916.0,762.1 L 931.3,762.1 L 946.6,761.9 L 961.7,761.7 L 976.8,761.4 L 991.8,761.1 L 1006.7,760.7 L 1021.5,760.4 L 1036.2,760.0 L 1050.8,759.7 L 1065.2,759.4 L 1079.6,759.2 L 1094.0,758.9 L 1108.2,758.8 L 1122.4,758.6 L 1136.6,758.5 L 1150.7,758.4 L 1164.9,758.3 L 1179.0,758.3 L 1193.0,758.2 L 1207.1,758.2 L 1221.2,758.2 L 1235.2,758.1 L 1249.3,758.1 L 1263.3,758.1 L 1277.4,758.1 L 1291.4,758.1 L 1305.4,758.1 L 1319.5,758.1 L 1333.5,758.1 L 1347.6,758.1 L 1361.6,758.1 L 1375.6,758.1 L 1389.7,758.1 L 1403.7,758.1 L 1417.8,758.1 L 1431.8,758.1" stroke="#9e6055" stroke-width="0.19" fill="none" opacity="0.08" stroke-dasharray="0.8 14.0"/>
    <path d="M 312.5,40.5 L 312.5,49.6 L 312.5,58.7 L 312.5,67.8 L 312.5,76.9 L 312.5,86.0 L 312.5,95.1 L 312.5,104.2 L 312.5,113.3 L 312.5,122.4 L 312.5,131.5 L 312.5,140.6 L 312.5,149.7 L 312.5,158.8 L 312.5,167.9 L 312.5,177.0 L 312.5,186.1 L 312.5,195.2 L 312.5,204.3 L 312.5,213.4 L 312.5,222.5 L 312.5,231.6 L 312.5,240.7 L 312.5,249.7 L 312.5,258.8 L 312.5,267.9 L 312.5,277.0 L 312.5,286.1 L 312.5,295.2 L 312.5,304.3 L 312.5,313.4 L 312.5,322.5 L 312.5,331.6 L 312.5,340.7 L 312.5,349.8 L 312.5,358.8 L 312.5,367.9 L 312.5,377.0 L 312.5,386.1 L 312.5,395.2 L 312.5,404.3 L 312.5,413.4 L 312.5,422.5 L 312.5,431.6 L 312.5,440.7 L 312.5,449.8 L 312.5,458.9 L 312.5,468.0 L 312.5,477.1 L 312.5,486.2 L 312.5,495.3 L 312.5,504.4 L 312.5,513.5 L 312.5,522.6 L 312.5,531.7 L 312.5,540.8 L 312.5,550.0 L 312.5,559.1 L 312.5,568.2 L 312.5,577.3 L 312.5,586.4 L 312.5,595.5 L 312.5,604.6 L 312.5,613.7 L 312.5,622.8 L 312.5,631.9 L 312.5,641.0 L 312.5,650.1 L 312.5,659.3 L 312.5,668.4 L 312.5,677.5 L 312.5,686.6 L 312.5,695.7 L 312.5,704.8 L 312.5,713.9 L 312.5,723.0 L 312.5,732.1 L 312.5,741.2 L 312.5,750.3 L 312.5,759.4 L 312.5,768.5 L 312.5,777.6 L 312.5,786.7 L 312.5,795.8 L 312.5,804.9 L 312.5,814.0 L 312.5,823.1 L 312.5,832.2 L 312.5,841.3 L 312.5,850.4 L 312.5,859.5" stroke="#a65d54" stroke-width="0.19" fill="none" opacity="0.08" stroke-dasharray="0.8 14.0"/>
    <path d="M 410.0,40.5 L 410.0,49.6 L 410.0,58.7 L 410.0,67.8 L 410.0,76.9 L 410.0,86.0 L 410.0,95.1 L 410.0,104.2 L 410.1,113.2 L 410.1,122.3 L 410.1,131.4 L 410.1,140.5 L 410.1,149.6 L 410.1,158.6 L 410.1,167.7 L 410.2,176.8 L 410.2,185.8 L 410.2,194.9 L 410.2,203.9 L 410.3,212.9 L 410.3,222.0 L 410.3,231.0 L 410.4,240.0 L 410.4,249.0 L 410.4,258.0 L 410.5,267.0 L 410.5,276.0 L 410.5,285.0 L 410.5,293.9 L 410.6,302.9 L 410.6,311.9 L 410.6,320.8 L 410.6,329.8 L 410.6,338.7 L 410.6,347.7 L 410.6,356.7 L 410.5,365.6 L 410.5,374.6 L 410.5,383.6 L 410.4,392.6 L 410.4,401.6 L 410.3,410.6 L 410.2,419.6 L 410.2,428.7 L 410.1,437.8 L 410.0,446.9 L 409.9,456.0 L 409.9,465.1 L 409.8,474.2 L 409.7,483.4 L 409.7,492.6 L 409.6,501.8 L 409.6,511.0 L 409.5,520.2 L 409.5,529.4 L 409.5,538.6 L 409.4,547.9 L 409.4,557.1 L 409.4,566.4 L 409.4,575.6 L 409.4,584.9 L 409.4,594.1 L 409.5,603.3 L 409.5,612.6 L 409.5,621.8 L 409.5,631.0 L 409.6,640.2 L 409.6,649.4 L 409.6,658.6 L 409.7,667.8 L 409.7,677.0 L 409.7,686.1 L 409.8,695.3 L 409.8,704.5 L 409.8,713.6 L 409.8,722.8 L 409.9,731.9 L 409.9,741.0 L 409.9,750.2 L 409.9,759.3 L 409.9,768.4 L 409.9,777.5 L 409.9,786.6 L 410.0,795.8 L 410.0,804.9 L 410.0,814.0 L 410.0,823.1 L 410.0,832.2 L 410.0,841.3 L 410.0,850.4 L 410.0,859.5" stroke="#a15e5b" stroke-width="0.21" fill="none" opacity="0.09" stroke-dasharray="0.8 13.2"/>
    <path d="M 503.7,40.4 L 503.7,49.5 L 503.7,58.6 L 503.8,67.7 L 503.8,76.7 L 503.9,85.8 L 503.9,94.8 L 504.0,103.8 L 504.1,112.9 L 504.2,121.9 L 504.3,130.8 L 504.4,139.8 L 504.6,148.7 L 504.8,157.6 L 504.9,166.5 L 505.1,175.3 L 505.4,184.1 L 505.6,192.9 L 505.9,201.6 L 506.1,210.2 L 506.4,218.9 L 506.7,227.4 L 507.0,235.9 L 507.4,244.3 L 507.7,252.7 L 508.0,261.1 L 508.3,269.4 L 508.5,277.6 L 508.8,285.8 L 509.0,293.9 L 509.1,302.1 L 509.3,310.2 L 509.3,318.3 L 509.3,326.4 L 509.3,334.5 L 509.1,342.6 L 508.9,350.8 L 508.7,359.1 L 508.3,367.3 L 507.9,375.7 L 507.4,384.2 L 506.9,392.7 L 506.3,401.4 L 505.7,410.1 L 505.1,419.0 L 504.4,428.0 L 503.7,437.2 L 503.1,446.4 L 502.4,455.8 L 501.8,465.3 L 501.2,475.0 L 500.6,484.7 L 500.1,494.5 L 499.7,504.4 L 499.3,514.3 L 499.0,524.4 L 498.8,534.4 L 498.6,544.5 L 498.5,554.6 L 498.5,564.8 L 498.5,574.9 L 498.6,585.0 L 498.7,595.0 L 498.9,605.0 L 499.1,615.0 L 499.4,625.0 L 499.7,634.8 L 499.9,644.7 L 500.2,654.4 L 500.5,664.2 L 500.8,673.8 L 501.1,683.4 L 501.4,693.0 L 501.6,702.5 L 501.8,711.9 L 502.1,721.3 L 502.3,730.7 L 502.5,740.0 L 502.6,749.3 L 502.8,758.6 L 502.9,767.8 L 503.0,777.1 L 503.1,786.3 L 503.2,795.4 L 503.3,804.6 L 503.3,813.8 L 503.4,822.9 L 503.4,832.1 L 503.5,841.2 L 503.5,850.3 L 503.5,859.4" stroke="#9c5f62" stroke-width="0.31" fill="none" opacity="0.14" stroke-dasharray="1.7 8.6"/>
    <path d="M 597.7,40.3 L 597.8,49.3 L 597.9,58.3 L 598.1,67.3 L 598.3,76.3 L 598.6,85.2 L 598.9,94.1 L 599.3,103.0 L 599.7,111.8 L 600.2,120.6 L 600.8,129.3 L 601.4,137.9 L 602.2,146.4 L 603.0,154.8 L 604.0,163.2 L 605.0,171.4 L 606.2,179.4 L 607.4,187.4 L 608.8,195.2 L 610.2,202.8 L 611.8,210.3 L 613.4,217.6 L 615.0,224.8 L 616.7,231.8 L 618.5,238.6 L 620.2,245.3 L 621.9,251.8 L 623.5,258.2 L 625.0,264.4 L 626.4,270.6 L 627.7,276.6 L 628.7,282.6 L 629.5,288.6 L 630.1,294.5 L 630.4,300.4 L 630.3,306.4 L 629.9,312.5 L 629.2,318.7 L 628.1,325.0 L 626.6,331.4 L 624.8,338.1 L 622.7,345.1 L 620.2,352.3 L 617.4,359.8 L 614.4,367.7 L 611.2,376.0 L 607.8,384.7 L 604.3,393.8 L 600.8,403.3 L 597.3,413.3 L 593.8,423.7 L 590.6,434.5 L 587.5,445.7 L 584.7,457.3 L 582.1,469.2 L 579.9,481.3 L 578.1,493.7 L 576.6,506.3 L 575.6,518.9 L 574.9,531.7 L 574.5,544.4 L 574.5,557.1 L 574.8,569.7 L 575.3,582.2 L 576.1,594.5 L 577.1,606.7 L 578.2,618.7 L 579.4,630.4 L 580.7,642.0 L 582.1,653.3 L 583.4,664.4 L 584.8,675.3 L 586.1,686.1 L 587.3,696.6 L 588.5,706.9 L 589.5,717.1 L 590.5,727.2 L 591.5,737.1 L 592.3,746.9 L 593.0,756.6 L 593.7,766.2 L 594.2,775.7 L 594.7,785.2 L 595.1,794.6 L 595.5,803.9 L 595.8,813.2 L 596.1,822.5 L 596.3,831.7 L 596.5,840.9 L 596.6,850.1 L 596.7,859.3" stroke="#976069" stroke-width="0.41" fill="none" opacity="0.20" stroke-dasharray="2.8 4.5"/>
    <path d="M 692.1,40.2 L 692.4,49.2 L 692.8,58.1 L 693.3,67.1 L 693.9,76.0 L 694.6,84.9 L 695.5,93.7 L 696.5,102.5 L 697.7,111.2 L 699.0,119.8 L 700.6,128.3 L 702.4,136.7 L 704.5,145.1 L 706.8,153.3 L 709.5,161.4 L 712.4,169.3 L 715.5,177.2 L 719.0,184.9 L 722.8,192.4 L 726.8,199.9 L 731.1,207.2 L 735.6,214.5 L 740.3,221.6 L 745.1,228.7 L 750.0,235.7 L 754.9,242.6 L 759.6,249.5 L 764.3,256.4 L 768.6,263.3 L 772.7,270.1 L 776.2,276.8 L 779.3,283.5 L 781.8,290.0 L 783.6,296.4 L 784.7,302.7 L 785.0,308.6 L 784.5,314.4 L 783.1,319.8 L 781.0,325.0 L 777.9,329.9 L 774.1,334.6 L 769.4,339.0 L 764.0,343.4 L 757.8,347.7 L 750.9,352.0 L 743.4,356.6 L 735.4,361.5 L 726.9,366.9 L 718.0,372.9 L 708.9,379.6 L 699.8,387.1 L 690.7,395.6 L 681.8,405.1 L 673.4,415.5 L 665.5,426.9 L 658.3,439.3 L 651.9,452.5 L 646.4,466.4 L 642.0,480.9 L 638.6,495.9 L 636.3,511.2 L 634.9,526.6 L 634.5,542.1 L 635.0,557.5 L 636.3,572.6 L 638.3,587.4 L 640.7,601.9 L 643.6,616.0 L 646.8,629.6 L 650.2,642.8 L 653.7,655.6 L 657.1,667.9 L 660.6,679.9 L 663.8,691.5 L 667.0,702.7 L 669.9,713.7 L 672.6,724.4 L 675.1,734.8 L 677.3,745.0 L 679.3,755.1 L 681.1,765.0 L 682.6,774.8 L 684.0,784.4 L 685.2,794.0 L 686.1,803.4 L 687.0,812.8 L 687.7,822.2 L 688.3,831.5 L 688.8,840.7 L 689.2,850.0 L 689.5,859.2" stroke="#936070" stroke-width="0.51" fill="none" opacity="0.25" stroke-dasharray="6.7 2.2"/>
    <path d="M 770.7,40.4 L 771.1,49.4 L 771.7,58.5 L 772.5,67.5 L 773.3,76.5 L 774.4,85.6 L 775.6,94.6 L 777.1,103.6 L 778.8,112.5 L 780.8,121.5 L 783.1,130.4 L 785.7,139.4 L 788.7,148.3 L 792.1,157.2 L 795.8,166.2 L 800.0,175.2 L 804.5,184.3 L 809.4,193.5 L 814.7,202.8 L 820.2,212.2 L 826.1,221.9 L 832.0,231.7 L 838.1,241.9 L 844.2,252.3 L 850.1,263.0 L 855.7,274.0 L 860.9,285.2 L 865.5,296.7 L 869.5,308.3 L 872.5,319.9 L 874.6,331.5 L 875.6,342.8 L 875.5,353.8 L 874.3,364.1 L 872.0,373.8 L 868.7,382.6 L 864.3,390.5 L 859.1,397.3 L 853.1,403.0 L 846.5,407.7 L 839.3,411.3 L 831.7,414.0 L 823.7,416.0 L 815.3,417.3 L 806.7,418.2 L 797.8,418.9 L 788.5,419.6 L 779.1,420.5 L 769.4,422.0 L 759.6,424.2 L 749.7,427.2 L 739.9,431.4 L 730.3,436.8 L 721.1,443.5 L 712.4,451.6 L 704.4,461.1 L 697.4,471.8 L 691.5,483.6 L 686.8,496.5 L 683.4,510.1 L 681.3,524.3 L 680.6,538.9 L 681.0,553.7 L 682.7,568.5 L 685.3,583.1 L 688.8,597.4 L 693.0,611.4 L 697.7,624.9 L 702.8,638.0 L 708.1,650.6 L 713.5,662.7 L 718.8,674.4 L 724.0,685.7 L 729.0,696.7 L 733.7,707.3 L 738.0,717.7 L 742.1,727.8 L 745.7,737.8 L 749.0,747.6 L 752.0,757.2 L 754.6,766.8 L 756.9,776.2 L 758.8,785.6 L 760.5,795.0 L 762.0,804.2 L 763.2,813.5 L 764.3,822.7 L 765.1,831.9 L 765.9,841.1 L 766.5,850.2 L 766.9,859.4" stroke="#8f6176" stroke-width="0.60" fill="none" opacity="0.30" />
    <path d="M 833.1,40.6 L 833.5,49.8 L 834.1,58.9 L 834.9,68.1 L 835.7,77.3 L 836.8,86.5 L 838.0,95.8 L 839.5,105.0 L 841.2,114.4 L 843.1,123.8 L 845.4,133.2 L 848.0,142.8 L 851.0,152.4 L 854.3,162.2 L 857.9,172.2 L 862.0,182.3 L 866.3,192.7 L 871.0,203.3 L 876.0,214.3 L 881.2,225.6 L 886.5,237.3 L 891.9,249.4 L 897.2,262.0 L 902.3,275.1 L 907.0,288.6 L 911.2,302.6 L 914.7,316.9 L 917.3,331.5 L 919.0,346.3 L 919.4,361.1 L 918.7,375.7 L 916.6,389.9 L 913.2,403.5 L 908.5,416.4 L 902.6,428.2 L 895.6,438.9 L 887.6,448.4 L 878.9,456.5 L 869.7,463.2 L 860.1,468.6 L 850.3,472.8 L 840.4,475.8 L 830.6,478.0 L 820.9,479.5 L 811.5,480.4 L 802.2,481.1 L 793.3,481.8 L 784.7,482.7 L 776.3,484.0 L 768.3,486.0 L 760.7,488.7 L 753.5,492.3 L 746.9,497.0 L 740.9,502.7 L 735.7,509.5 L 731.3,517.4 L 728.0,526.2 L 725.7,535.9 L 724.5,546.2 L 724.4,557.2 L 725.4,568.5 L 727.5,580.1 L 730.5,591.7 L 734.5,603.3 L 739.1,614.8 L 744.3,626.0 L 749.9,637.0 L 755.8,647.7 L 761.9,658.1 L 768.0,668.3 L 773.9,678.1 L 779.8,687.8 L 785.3,697.2 L 790.6,706.5 L 795.5,715.7 L 800.0,724.8 L 804.2,733.8 L 807.9,742.8 L 811.3,751.7 L 814.3,760.6 L 816.9,769.6 L 819.2,778.5 L 821.2,787.5 L 822.9,796.4 L 824.4,805.4 L 825.6,814.4 L 826.7,823.5 L 827.5,832.5 L 828.3,841.5 L 828.9,850.6 L 829.3,859.6" stroke="#8b627a" stroke-width="0.60" fill="none" opacity="0.30" />
    <path d="M 910.5,40.8 L 910.8,50.0 L 911.2,59.3 L 911.7,68.5 L 912.3,77.8 L 913.0,87.2 L 913.9,96.6 L 914.8,106.0 L 916.0,115.6 L 917.4,125.2 L 918.9,135.0 L 920.7,144.9 L 922.7,155.0 L 924.9,165.2 L 927.4,175.6 L 930.1,186.3 L 933.0,197.3 L 936.2,208.5 L 939.4,220.1 L 942.9,232.1 L 946.3,244.4 L 949.8,257.2 L 953.2,270.4 L 956.4,284.0 L 959.3,298.1 L 961.7,312.6 L 963.7,327.4 L 965.0,342.5 L 965.5,357.9 L 965.1,373.4 L 963.7,388.8 L 961.4,404.1 L 958.0,419.1 L 953.6,433.6 L 948.1,447.5 L 941.7,460.7 L 934.5,473.1 L 926.6,484.5 L 918.2,494.9 L 909.3,504.4 L 900.2,512.9 L 891.1,520.4 L 882.0,527.1 L 873.1,533.1 L 864.6,538.5 L 856.6,543.4 L 849.1,548.0 L 842.2,552.3 L 836.0,556.6 L 830.6,561.0 L 825.9,565.4 L 822.1,570.1 L 819.0,575.0 L 816.9,580.2 L 815.5,585.6 L 815.0,591.4 L 815.3,597.3 L 816.4,603.6 L 818.2,610.0 L 820.7,616.5 L 823.8,623.2 L 827.3,629.9 L 831.4,636.7 L 835.7,643.6 L 840.4,650.5 L 845.1,657.4 L 850.0,664.3 L 854.9,671.3 L 859.7,678.4 L 864.4,685.5 L 868.9,692.8 L 873.2,700.1 L 877.2,707.6 L 881.0,715.1 L 884.5,722.8 L 887.6,730.7 L 890.5,738.6 L 893.2,746.7 L 895.5,754.9 L 897.6,763.3 L 899.4,771.7 L 901.0,780.2 L 902.3,788.8 L 903.5,797.5 L 904.5,806.3 L 905.4,815.1 L 906.1,824.0 L 906.7,832.9 L 907.2,841.9 L 907.6,850.8 L 907.9,859.8" stroke="#876380" stroke-width="0.51" fill="none" opacity="0.25" stroke-dasharray="6.7 2.2"/>
    <path d="M 1003.3,40.7 L 1003.4,49.9 L 1003.5,59.1 L 1003.7,68.3 L 1003.9,77.5 L 1004.2,86.8 L 1004.5,96.1 L 1004.9,105.4 L 1005.3,114.8 L 1005.8,124.3 L 1006.3,133.8 L 1007.0,143.4 L 1007.7,153.1 L 1008.5,162.9 L 1009.5,172.8 L 1010.5,182.9 L 1011.5,193.1 L 1012.7,203.4 L 1013.9,213.9 L 1015.2,224.7 L 1016.6,235.6 L 1017.9,246.7 L 1019.3,258.0 L 1020.6,269.6 L 1021.8,281.3 L 1022.9,293.3 L 1023.9,305.5 L 1024.7,317.8 L 1025.2,330.3 L 1025.5,342.9 L 1025.5,355.6 L 1025.1,368.3 L 1024.4,381.1 L 1023.4,393.7 L 1021.9,406.3 L 1020.1,418.7 L 1017.9,430.8 L 1015.3,442.7 L 1012.5,454.3 L 1009.4,465.5 L 1006.2,476.3 L 1002.7,486.7 L 999.2,496.7 L 995.7,506.2 L 992.2,515.3 L 988.8,524.0 L 985.6,532.3 L 982.6,540.2 L 979.8,547.7 L 977.3,554.9 L 975.2,561.9 L 973.4,568.6 L 971.9,575.0 L 970.8,581.3 L 970.1,587.5 L 969.7,593.6 L 969.6,599.6 L 969.9,605.5 L 970.5,611.4 L 971.3,617.4 L 972.3,623.4 L 973.6,629.4 L 975.0,635.6 L 976.5,641.8 L 978.1,648.2 L 979.8,654.7 L 981.5,661.4 L 983.3,668.2 L 985.0,675.2 L 986.6,682.4 L 988.2,689.7 L 989.8,697.2 L 991.2,704.8 L 992.6,712.6 L 993.8,720.6 L 995.0,728.6 L 996.0,736.8 L 997.0,745.2 L 997.8,753.6 L 998.6,762.1 L 999.2,770.7 L 999.8,779.4 L 1000.3,788.2 L 1000.7,797.0 L 1001.1,805.9 L 1001.4,814.8 L 1001.7,823.7 L 1001.9,832.7 L 1002.1,841.7 L 1002.2,850.7 L 1002.3,859.7" stroke="#836387" stroke-width="0.41" fill="none" opacity="0.20" stroke-dasharray="2.8 4.5"/>
    <path d="M 1096.5,40.6 L 1096.5,49.7 L 1096.5,58.8 L 1096.6,67.9 L 1096.6,77.1 L 1096.7,86.2 L 1096.7,95.4 L 1096.8,104.6 L 1096.9,113.7 L 1097.0,122.9 L 1097.1,132.2 L 1097.2,141.4 L 1097.4,150.7 L 1097.5,160.0 L 1097.7,169.3 L 1097.9,178.7 L 1098.2,188.1 L 1098.4,197.5 L 1098.6,207.0 L 1098.9,216.6 L 1099.2,226.2 L 1099.5,235.8 L 1099.8,245.6 L 1100.1,255.3 L 1100.3,265.2 L 1100.6,275.0 L 1100.9,285.0 L 1101.1,295.0 L 1101.3,305.0 L 1101.4,315.0 L 1101.5,325.1 L 1101.5,335.2 L 1101.5,345.4 L 1101.4,355.5 L 1101.2,365.6 L 1101.0,375.6 L 1100.7,385.7 L 1100.3,395.6 L 1099.9,405.5 L 1099.4,415.3 L 1098.8,425.0 L 1098.2,434.7 L 1097.6,444.2 L 1096.9,453.6 L 1096.3,462.8 L 1095.6,472.0 L 1094.9,481.0 L 1094.3,489.9 L 1093.7,498.6 L 1093.1,507.3 L 1092.6,515.8 L 1092.1,524.3 L 1091.7,532.7 L 1091.3,540.9 L 1091.1,549.2 L 1090.9,557.4 L 1090.7,565.5 L 1090.7,573.6 L 1090.7,581.7 L 1090.7,589.8 L 1090.9,597.9 L 1091.0,606.1 L 1091.2,614.2 L 1091.5,622.4 L 1091.7,630.6 L 1092.0,638.9 L 1092.3,647.3 L 1092.6,655.7 L 1093.0,664.1 L 1093.3,672.6 L 1093.6,681.1 L 1093.9,689.8 L 1094.1,698.4 L 1094.4,707.1 L 1094.6,715.9 L 1094.9,724.7 L 1095.1,733.5 L 1095.2,742.4 L 1095.4,751.3 L 1095.6,760.2 L 1095.7,769.2 L 1095.8,778.1 L 1095.9,787.1 L 1096.0,796.2 L 1096.1,805.2 L 1096.1,814.2 L 1096.2,823.3 L 1096.2,832.3 L 1096.3,841.4 L 1096.3,850.5 L 1096.3,859.6" stroke="#7e648e" stroke-width="0.31" fill="none" opacity="0.14" stroke-dasharray="1.7 8.6"/>
    <path d="M 1190.0,40.5 L 1190.0,49.6 L 1190.0,58.7 L 1190.0,67.8 L 1190.0,76.9 L 1190.0,86.0 L 1190.0,95.1 L 1190.0,104.2 L 1190.1,113.4 L 1190.1,122.5 L 1190.1,131.6 L 1190.1,140.7 L 1190.1,149.8 L 1190.1,159.0 L 1190.1,168.1 L 1190.2,177.2 L 1190.2,186.4 L 1190.2,195.5 L 1190.2,204.7 L 1190.3,213.9 L 1190.3,223.0 L 1190.3,232.2 L 1190.4,241.4 L 1190.4,250.6 L 1190.4,259.8 L 1190.5,269.0 L 1190.5,278.2 L 1190.5,287.4 L 1190.5,296.7 L 1190.6,305.9 L 1190.6,315.1 L 1190.6,324.4 L 1190.6,333.6 L 1190.6,342.9 L 1190.6,352.1 L 1190.5,361.4 L 1190.5,370.6 L 1190.5,379.8 L 1190.4,389.0 L 1190.4,398.2 L 1190.3,407.4 L 1190.3,416.6 L 1190.2,425.8 L 1190.1,434.9 L 1190.1,444.0 L 1190.0,453.1 L 1189.9,462.2 L 1189.8,471.3 L 1189.8,480.4 L 1189.7,489.4 L 1189.6,498.4 L 1189.6,507.4 L 1189.5,516.4 L 1189.5,525.4 L 1189.5,534.4 L 1189.4,543.3 L 1189.4,552.3 L 1189.4,561.3 L 1189.4,570.2 L 1189.4,579.2 L 1189.4,588.1 L 1189.4,597.1 L 1189.5,606.1 L 1189.5,615.0 L 1189.5,624.0 L 1189.5,633.0 L 1189.6,642.0 L 1189.6,651.0 L 1189.6,660.0 L 1189.7,669.0 L 1189.7,678.0 L 1189.7,687.1 L 1189.8,696.1 L 1189.8,705.1 L 1189.8,714.2 L 1189.8,723.2 L 1189.9,732.3 L 1189.9,741.4 L 1189.9,750.4 L 1189.9,759.5 L 1189.9,768.6 L 1189.9,777.7 L 1189.9,786.8 L 1190.0,795.8 L 1190.0,804.9 L 1190.0,814.0 L 1190.0,823.1 L 1190.0,832.2 L 1190.0,841.3 L 1190.0,850.4 L 1190.0,859.5" stroke="#796595" stroke-width="0.21" fill="none" opacity="0.09" stroke-dasharray="0.8 13.2"/>
    <path d="M 1287.5,40.5 L 1287.5,49.6 L 1287.5,58.7 L 1287.5,67.8 L 1287.5,76.9 L 1287.5,86.0 L 1287.5,95.1 L 1287.5,104.2 L 1287.5,113.3 L 1287.5,122.4 L 1287.5,131.5 L 1287.5,140.6 L 1287.5,149.7 L 1287.5,158.8 L 1287.5,167.9 L 1287.5,177.0 L 1287.5,186.1 L 1287.5,195.2 L 1287.5,204.3 L 1287.5,213.4 L 1287.5,222.5 L 1287.5,231.6 L 1287.5,240.7 L 1287.5,249.9 L 1287.5,259.0 L 1287.5,268.1 L 1287.5,277.2 L 1287.5,286.3 L 1287.5,295.4 L 1287.5,304.5 L 1287.5,313.6 L 1287.5,322.7 L 1287.5,331.8 L 1287.5,340.9 L 1287.5,350.0 L 1287.5,359.2 L 1287.5,368.3 L 1287.5,377.4 L 1287.5,386.5 L 1287.5,395.6 L 1287.5,404.7 L 1287.5,413.8 L 1287.5,422.9 L 1287.5,432.0 L 1287.5,441.1 L 1287.5,450.2 L 1287.5,459.3 L 1287.5,468.4 L 1287.5,477.5 L 1287.5,486.6 L 1287.5,495.7 L 1287.5,504.8 L 1287.5,513.9 L 1287.5,523.0 L 1287.5,532.1 L 1287.5,541.2 L 1287.5,550.2 L 1287.5,559.3 L 1287.5,568.4 L 1287.5,577.5 L 1287.5,586.6 L 1287.5,595.7 L 1287.5,604.8 L 1287.5,613.9 L 1287.5,623.0 L 1287.5,632.1 L 1287.5,641.2 L 1287.5,650.3 L 1287.5,659.3 L 1287.5,668.4 L 1287.5,677.5 L 1287.5,686.6 L 1287.5,695.7 L 1287.5,704.8 L 1287.5,713.9 L 1287.5,723.0 L 1287.5,732.1 L 1287.5,741.2 L 1287.5,750.3 L 1287.5,759.4 L 1287.5,768.5 L 1287.5,777.6 L 1287.5,786.7 L 1287.5,795.8 L 1287.5,804.9 L 1287.5,814.0 L 1287.5,823.1 L 1287.5,832.2 L 1287.5,841.3 L 1287.5,850.4 L 1287.5,859.5" stroke="#74669c" stroke-width="0.19" fill="none" opacity="0.08" stroke-dasharray="0.8 14.0"/>
  </g>

  <!-- main swirled grid -->
  <g id="main-grid">
    <path d="M 168.2,106.8 L 182.2,106.8 L 196.3,106.8 L 210.3,106.8 L 224.4,106.8 L 238.4,106.8 L 252.4,106.8 L 266.5,106.8 L 280.5,106.8 L 294.6,106.8 L 308.6,106.8 L 322.6,106.8 L 336.7,106.8 L 350.7,106.8 L 364.8,106.8 L 378.8,106.8 L 392.9,106.8 L 406.9,106.8 L 421.0,106.7 L 435.0,106.7 L 449.1,106.7 L 463.2,106.6 L 477.3,106.6 L 491.5,106.5 L 505.6,106.4 L 519.8,106.3 L 534.0,106.2 L 548.3,106.1 L 562.6,105.9 L 576.9,105.8 L 591.3,105.6 L 605.8,105.4 L 620.3,105.3 L 634.9,105.2 L 649.5,105.0 L 664.2,105.0 L 678.9,104.9 L 693.5,104.9 L 708.2,105.0 L 722.8,105.1 L 737.4,105.3 L 752.0,105.6 L 766.4,105.9 L 780.7,106.2 L 794.9,106.6 L 809.0,106.9 L 823.0,107.3 L 836.9,107.6 L 850.6,107.9 L 864.2,108.2 L 877.8,108.4 L 891.3,108.6 L 904.7,108.7 L 918.1,108.8 L 931.5,108.8 L 945.0,108.7 L 958.4,108.6 L 971.9,108.5 L 985.4,108.3 L 998.9,108.2 L 1012.5,108.0 L 1026.2,107.8 L 1039.9,107.7 L 1053.7,107.5 L 1067.5,107.4 L 1081.4,107.3 L 1095.3,107.2 L 1109.2,107.1 L 1123.2,107.0 L 1137.1,107.0 L 1151.1,106.9 L 1165.1,106.9 L 1179.1,106.9 L 1193.2,106.8 L 1207.2,106.8 L 1221.2,106.8 L 1235.3,106.8 L 1249.3,106.8 L 1263.3,106.8 L 1277.4,106.8 L 1291.4,106.8 L 1305.4,106.8 L 1319.5,106.8 L 1333.5,106.8 L 1347.6,106.8 L 1361.6,106.8 L 1375.6,106.8 L 1389.7,106.8 L 1403.7,106.8 L 1417.8,106.8 L 1431.8,106.8" stroke="#7267a0" stroke-width="0.35" fill="none" opacity="0.14" stroke-dasharray="0.8 14.0"/>
    <path d="M 168.2,177.0 L 182.2,177.0 L 196.3,177.0 L 210.3,177.0 L 224.4,177.0 L 238.4,177.0 L 252.4,177.0 L 266.5,177.0 L 280.5,177.0 L 294.6,177.0 L 308.6,177.0 L 322.7,177.0 L 336.7,177.0 L 350.7,177.0 L 364.8,176.9 L 378.9,176.9 L 392.9,176.8 L 407.0,176.8 L 421.1,176.7 L 435.3,176.6 L 449.5,176.4 L 463.7,176.2 L 478.0,176.0 L 492.3,175.7 L 506.8,175.3 L 521.3,174.9 L 536.0,174.3 L 550.8,173.8 L 565.8,173.1 L 581.0,172.5 L 596.4,171.8 L 612.0,171.1 L 627.7,170.4 L 643.7,169.8 L 659.8,169.4 L 676.1,169.1 L 692.4,169.1 L 708.7,169.3 L 725.0,169.7 L 741.2,170.4 L 757.2,171.4 L 772.9,172.6 L 788.3,174.0 L 803.3,175.6 L 817.9,177.2 L 832.0,178.9 L 845.8,180.5 L 859.1,182.0 L 872.0,183.3 L 884.6,184.4 L 896.9,185.3 L 909.0,185.9 L 920.9,186.2 L 932.7,186.3 L 944.5,186.2 L 956.4,185.8 L 968.3,185.3 L 980.3,184.7 L 992.5,184.0 L 1004.9,183.2 L 1017.4,182.4 L 1030.2,181.7 L 1043.1,180.9 L 1056.2,180.3 L 1069.5,179.7 L 1082.9,179.2 L 1096.4,178.7 L 1110.1,178.3 L 1123.8,178.0 L 1137.6,177.8 L 1151.5,177.6 L 1165.4,177.4 L 1179.3,177.3 L 1193.3,177.2 L 1207.3,177.2 L 1221.3,177.1 L 1235.3,177.1 L 1249.3,177.0 L 1263.3,177.0 L 1277.4,177.0 L 1291.4,177.0 L 1305.4,177.0 L 1319.5,177.0 L 1333.5,177.0 L 1347.6,177.0 L 1361.6,177.0 L 1375.6,177.0 L 1389.7,177.0 L 1403.7,177.0 L 1417.8,177.0 L 1431.8,177.0" stroke="#6c699c" stroke-width="0.51" fill="none" opacity="0.23" stroke-dasharray="1.4 9.9"/>
    <path d="M 168.2,247.2 L 182.2,247.2 L 196.3,247.2 L 210.3,247.2 L 224.4,247.2 L 238.4,247.2 L 252.4,247.2 L 266.5,247.2 L 280.5,247.2 L 294.6,247.2 L 308.6,247.2 L 322.7,247.1 L 336.7,247.1 L 350.8,247.0 L 364.9,247.0 L 379.0,246.9 L 393.1,246.7 L 407.2,246.5 L 421.4,246.2 L 435.7,245.8 L 450.1,245.4 L 464.5,244.7 L 479.1,243.9 L 493.9,243.0 L 509.0,241.8 L 524.2,240.4 L 539.8,238.8 L 555.8,237.0 L 572.2,235.1 L 589.0,233.0 L 606.4,230.9 L 624.2,228.9 L 642.6,227.1 L 661.4,225.7 L 680.7,224.8 L 700.2,224.5 L 719.8,224.9 L 739.4,226.2 L 758.8,228.4 L 777.7,231.5 L 796.1,235.4 L 813.6,240.0 L 830.2,245.1 L 845.8,250.5 L 860.4,255.9 L 874.0,261.2 L 886.6,266.1 L 898.3,270.4 L 909.3,274.1 L 919.7,276.9 L 929.6,278.9 L 939.1,280.1 L 948.4,280.4 L 957.5,279.9 L 966.7,278.8 L 976.0,277.2 L 985.4,275.1 L 995.1,272.7 L 1005.1,270.1 L 1015.5,267.4 L 1026.2,264.8 L 1037.4,262.3 L 1048.9,259.9 L 1060.8,257.7 L 1073.1,255.8 L 1085.7,254.1 L 1098.5,252.7 L 1111.6,251.5 L 1125.0,250.5 L 1138.4,249.7 L 1152.1,249.0 L 1165.8,248.6 L 1179.6,248.2 L 1193.5,247.9 L 1207.4,247.7 L 1221.4,247.5 L 1235.3,247.4 L 1249.4,247.4 L 1263.4,247.3 L 1277.4,247.3 L 1291.4,247.2 L 1305.5,247.2 L 1319.5,247.2 L 1333.5,247.2 L 1347.6,247.2 L 1361.6,247.2 L 1375.6,247.2 L 1389.7,247.2 L 1403.7,247.2 L 1417.8,247.2 L 1431.8,247.2" stroke="#676b98" stroke-width="0.68" fill="none" opacity="0.32" stroke-dasharray="2.3 5.8"/>
    <path d="M 168.2,317.4 L 182.2,317.4 L 196.3,317.4 L 210.3,317.4 L 224.4,317.4 L 238.4,317.4 L 252.4,317.4 L 266.5,317.4 L 280.5,317.4 L 294.6,317.3 L 308.6,317.3 L 322.7,317.2 L 336.7,317.2 L 350.8,317.0 L 364.9,316.9 L 379.0,316.6 L 393.2,316.3 L 407.4,315.8 L 421.7,315.2 L 436.1,314.3 L 450.6,313.2 L 465.3,311.8 L 480.2,310.1 L 495.4,307.9 L 510.9,305.2 L 526.9,302.1 L 543.5,298.6 L 560.6,294.6 L 578.5,290.3 L 597.2,285.9 L 616.8,281.5 L 637.4,277.4 L 658.8,274.0 L 681.0,271.6 L 703.9,270.6 L 727.0,271.2 L 750.1,273.8 L 772.7,278.4 L 794.4,285.0 L 814.7,293.6 L 833.4,303.7 L 850.1,315.0 L 865.0,327.0 L 877.9,339.1 L 889.1,350.8 L 899.1,361.8 L 907.9,371.7 L 916.2,380.2 L 924.0,387.0 L 931.8,392.1 L 939.7,395.4 L 947.8,396.9 L 956.2,396.7 L 964.8,394.9 L 973.6,391.7 L 982.7,387.4 L 991.9,382.1 L 1001.3,376.3 L 1011.0,370.1 L 1020.9,363.8 L 1031.1,357.7 L 1041.7,351.8 L 1052.6,346.3 L 1063.9,341.3 L 1075.6,336.9 L 1087.7,333.1 L 1100.1,329.8 L 1112.8,327.1 L 1125.9,324.8 L 1139.1,323.0 L 1152.5,321.6 L 1166.1,320.5 L 1179.8,319.6 L 1193.6,319.0 L 1207.5,318.5 L 1221.4,318.2 L 1235.4,317.9 L 1249.4,317.8 L 1263.4,317.6 L 1277.4,317.6 L 1291.4,317.5 L 1305.5,317.5 L 1319.5,317.4 L 1333.5,317.4 L 1347.6,317.4 L 1361.6,317.4 L 1375.6,317.4 L 1389.7,317.4 L 1403.7,317.4 L 1417.8,317.4 L 1431.8,317.4" stroke="#626e94" stroke-width="0.84" fill="none" opacity="0.41" stroke-dasharray="4.7 3.4"/>
    <path d="M 168.2,387.6 L 182.2,387.6 L 196.3,387.6 L 210.3,387.6 L 224.4,387.6 L 238.4,387.6 L 252.4,387.6 L 266.5,387.6 L 280.5,387.5 L 294.6,387.5 L 308.6,387.4 L 322.7,387.4 L 336.7,387.2 L 350.8,387.0 L 364.9,386.8 L 379.0,386.4 L 393.1,385.8 L 407.3,385.1 L 421.5,384.0 L 435.8,382.7 L 450.3,380.9 L 464.8,378.6 L 479.6,375.8 L 494.6,372.3 L 510.0,368.0 L 525.8,363.0 L 542.2,357.3 L 559.3,350.9 L 577.3,343.9 L 596.2,336.7 L 616.3,329.6 L 637.5,323.0 L 659.8,317.5 L 683.0,313.6 L 706.9,311.9 L 730.7,312.9 L 754.0,316.8 L 776.0,323.8 L 795.9,333.7 L 813.2,346.0 L 827.6,360.2 L 838.9,375.6 L 847.4,391.5 L 853.4,407.2 L 857.7,422.4 L 860.9,436.6 L 864.0,449.7 L 867.4,461.6 L 872.0,472.0 L 878.1,480.9 L 885.9,487.9 L 895.6,493.0 L 907.0,495.8 L 919.9,496.3 L 933.7,494.5 L 948.2,490.5 L 962.9,484.6 L 977.6,477.3 L 992.0,468.9 L 1006.0,460.0 L 1019.6,450.9 L 1033.0,441.9 L 1046.1,433.5 L 1059.2,425.7 L 1072.2,418.7 L 1085.2,412.7 L 1098.4,407.4 L 1111.6,403.1 L 1125.0,399.5 L 1138.5,396.6 L 1152.1,394.3 L 1165.8,392.5 L 1179.6,391.2 L 1193.5,390.1 L 1207.4,389.4 L 1221.4,388.8 L 1235.4,388.4 L 1249.4,388.2 L 1263.4,388.0 L 1277.4,387.8 L 1291.4,387.8 L 1305.5,387.7 L 1319.5,387.7 L 1333.5,387.6 L 1347.6,387.6 L 1361.6,387.6 L 1375.6,387.6 L 1389.7,387.6 L 1403.7,387.6 L 1417.8,387.6 L 1431.8,387.6" stroke="#5d7090" stroke-width="1.00" fill="none" opacity="0.50" />
    <path d="M 168.2,450.0 L 182.2,450.0 L 196.3,450.0 L 210.3,450.0 L 224.4,450.0 L 238.4,450.0 L 252.4,450.0 L 266.5,450.0 L 280.5,449.9 L 294.6,449.9 L 308.6,449.8 L 322.6,449.7 L 336.7,449.6 L 350.7,449.4 L 364.8,449.0 L 378.8,448.6 L 392.8,448.0 L 406.9,447.1 L 420.9,445.9 L 435.0,444.4 L 449.1,442.3 L 463.2,439.7 L 477.4,436.4 L 491.6,432.4 L 506.0,427.5 L 520.6,421.6 L 535.6,414.9 L 550.9,407.2 L 566.9,398.9 L 583.5,390.0 L 601.0,381.0 L 619.5,372.2 L 638.9,364.2 L 659.1,357.6 L 679.8,353.0 L 700.5,350.9 L 720.7,351.6 L 739.5,355.4 L 756.3,362.0 L 770.5,371.1 L 781.7,382.2 L 789.9,394.8 L 795.2,408.1 L 798.2,422.0 L 799.6,436.0 L 800.0,450.0 L 800.4,464.0 L 801.8,478.0 L 804.8,491.9 L 810.1,505.2 L 818.3,517.8 L 829.5,528.9 L 843.7,538.0 L 860.5,544.6 L 879.3,548.4 L 899.5,549.1 L 920.2,547.0 L 940.9,542.4 L 961.1,535.8 L 980.5,527.8 L 999.0,519.0 L 1016.5,510.0 L 1033.1,501.1 L 1049.1,492.8 L 1064.4,485.1 L 1079.4,478.4 L 1094.0,472.5 L 1108.4,467.6 L 1122.6,463.6 L 1136.8,460.3 L 1150.9,457.7 L 1165.0,455.6 L 1179.1,454.1 L 1193.1,452.9 L 1207.2,452.0 L 1221.2,451.4 L 1235.2,451.0 L 1249.3,450.6 L 1263.3,450.4 L 1277.4,450.3 L 1291.4,450.2 L 1305.4,450.1 L 1319.5,450.1 L 1333.5,450.0 L 1347.6,450.0 L 1361.6,450.0 L 1375.6,450.0 L 1389.7,450.0 L 1403.7,450.0 L 1417.8,450.0 L 1431.8,450.0" stroke="#3f7f79" stroke-width="1.15" fill="none" opacity="0.58" />
    <path d="M 168.2,512.4 L 182.2,512.4 L 196.3,512.4 L 210.3,512.4 L 224.4,512.4 L 238.4,512.4 L 252.4,512.4 L 266.5,512.4 L 280.5,512.3 L 294.5,512.3 L 308.6,512.2 L 322.6,512.2 L 336.6,512.0 L 350.6,511.8 L 364.6,511.6 L 378.6,511.2 L 392.6,510.6 L 406.5,509.9 L 420.4,508.8 L 434.2,507.5 L 447.9,505.7 L 461.5,503.4 L 475.0,500.5 L 488.4,496.9 L 501.6,492.6 L 514.8,487.3 L 527.8,481.3 L 540.8,474.3 L 553.9,466.5 L 567.0,458.1 L 580.4,449.1 L 594.0,440.0 L 608.0,431.1 L 622.4,422.7 L 637.1,415.4 L 651.8,409.5 L 666.3,405.5 L 680.1,403.7 L 693.0,404.2 L 704.4,407.0 L 714.1,412.1 L 721.9,419.1 L 728.0,428.0 L 732.6,438.4 L 736.0,450.3 L 739.1,463.4 L 742.3,477.6 L 746.6,492.8 L 752.6,508.5 L 761.1,524.4 L 772.4,539.8 L 786.8,554.0 L 804.1,566.3 L 824.0,576.2 L 846.0,583.2 L 869.3,587.1 L 893.1,588.1 L 917.0,586.4 L 940.2,582.5 L 962.5,577.0 L 983.7,570.4 L 1003.8,563.3 L 1022.7,556.1 L 1040.7,549.1 L 1057.8,542.7 L 1074.2,537.0 L 1090.0,532.0 L 1105.4,527.7 L 1120.4,524.2 L 1135.2,521.4 L 1149.7,519.1 L 1164.2,517.3 L 1178.5,516.0 L 1192.7,514.9 L 1206.9,514.2 L 1221.0,513.6 L 1235.1,513.2 L 1249.2,513.0 L 1263.3,512.8 L 1277.3,512.6 L 1291.4,512.6 L 1305.4,512.5 L 1319.5,512.5 L 1333.5,512.4 L 1347.6,512.4 L 1361.6,512.4 L 1375.6,512.4 L 1389.7,512.4 L 1403.7,512.4 L 1417.8,512.4 L 1431.8,512.4" stroke="#527871" stroke-width="1.00" fill="none" opacity="0.50" />
    <path d="M 168.2,582.6 L 182.2,582.6 L 196.3,582.6 L 210.3,582.6 L 224.4,582.6 L 238.4,582.6 L 252.4,582.6 L 266.5,582.6 L 280.5,582.6 L 294.5,582.5 L 308.6,582.5 L 322.6,582.4 L 336.6,582.4 L 350.6,582.2 L 364.6,582.1 L 378.6,581.8 L 392.5,581.5 L 406.4,581.0 L 420.2,580.4 L 433.9,579.5 L 447.5,578.4 L 460.9,577.0 L 474.1,575.2 L 487.2,572.9 L 499.9,570.2 L 512.3,566.9 L 524.4,563.1 L 536.1,558.7 L 547.4,553.7 L 558.3,548.2 L 568.9,542.3 L 579.1,536.2 L 589.0,529.9 L 598.7,523.7 L 608.1,517.9 L 617.3,512.6 L 626.4,508.3 L 635.2,505.1 L 643.8,503.3 L 652.2,503.1 L 660.3,504.6 L 668.2,507.9 L 676.0,513.0 L 683.8,519.8 L 692.1,528.3 L 700.9,538.2 L 710.9,549.2 L 722.1,560.9 L 735.0,573.0 L 749.9,585.0 L 766.6,596.3 L 785.3,606.4 L 805.6,615.0 L 827.3,621.6 L 849.9,626.2 L 873.0,628.8 L 896.1,629.4 L 919.0,628.4 L 941.2,626.0 L 962.6,622.6 L 983.2,618.5 L 1002.8,614.1 L 1021.5,609.7 L 1039.4,605.4 L 1056.5,601.4 L 1073.1,597.9 L 1089.1,594.8 L 1104.6,592.1 L 1119.8,589.9 L 1134.7,588.2 L 1149.4,586.8 L 1163.9,585.7 L 1178.3,584.8 L 1192.6,584.2 L 1206.8,583.7 L 1221.0,583.4 L 1235.1,583.1 L 1249.2,583.0 L 1263.3,582.8 L 1277.3,582.8 L 1291.4,582.7 L 1305.4,582.7 L 1319.5,582.6 L 1333.5,582.6 L 1347.6,582.6 L 1361.6,582.6 L 1375.6,582.6 L 1389.7,582.6 L 1403.7,582.6 L 1417.8,582.6 L 1431.8,582.6" stroke="#677169" stroke-width="0.84" fill="none" opacity="0.41" stroke-dasharray="4.7 3.4"/>
    <path d="M 168.2,652.8 L 182.2,652.8 L 196.3,652.8 L 210.3,652.8 L 224.4,652.8 L 238.4,652.8 L 252.4,652.8 L 266.5,652.8 L 280.5,652.8 L 294.5,652.8 L 308.6,652.8 L 322.6,652.7 L 336.6,652.7 L 350.6,652.6 L 364.7,652.6 L 378.6,652.5 L 392.6,652.3 L 406.5,652.1 L 420.4,651.8 L 434.2,651.4 L 447.9,651.0 L 461.6,650.3 L 475.0,649.5 L 488.4,648.5 L 501.5,647.3 L 514.3,645.9 L 526.9,644.2 L 539.2,642.3 L 551.1,640.1 L 562.6,637.7 L 573.8,635.2 L 584.5,632.6 L 594.9,629.9 L 604.9,627.3 L 614.6,624.9 L 624.0,622.8 L 633.3,621.2 L 642.5,620.1 L 651.6,619.6 L 660.9,619.9 L 670.4,621.1 L 680.3,623.1 L 690.7,625.9 L 701.7,629.6 L 713.4,633.9 L 726.0,638.8 L 739.6,644.1 L 754.2,649.5 L 769.8,654.9 L 786.4,660.0 L 803.9,664.6 L 822.3,668.5 L 841.2,671.6 L 860.6,673.8 L 880.2,675.1 L 899.8,675.5 L 919.3,675.2 L 938.6,674.3 L 957.4,672.9 L 975.8,671.1 L 993.6,669.1 L 1011.0,667.0 L 1027.8,664.9 L 1044.2,663.0 L 1060.2,661.2 L 1075.8,659.6 L 1091.0,658.2 L 1106.1,657.0 L 1120.9,656.1 L 1135.5,655.3 L 1149.9,654.6 L 1164.3,654.2 L 1178.6,653.8 L 1192.8,653.5 L 1206.9,653.3 L 1221.0,653.1 L 1235.1,653.0 L 1249.2,653.0 L 1263.3,652.9 L 1277.3,652.9 L 1291.4,652.8 L 1305.4,652.8 L 1319.5,652.8 L 1333.5,652.8 L 1347.6,652.8 L 1361.6,652.8 L 1375.6,652.8 L 1389.7,652.8 L 1403.7,652.8 L 1417.8,652.8 L 1431.8,652.8" stroke="#7d6a61" stroke-width="0.68" fill="none" opacity="0.32" stroke-dasharray="2.3 5.8"/>
    <path d="M 168.2,723.0 L 182.2,723.0 L 196.3,723.0 L 210.3,723.0 L 224.4,723.0 L 238.4,723.0 L 252.4,723.0 L 266.5,723.0 L 280.5,723.0 L 294.6,723.0 L 308.6,723.0 L 322.6,723.0 L 336.7,723.0 L 350.7,723.0 L 364.7,722.9 L 378.7,722.9 L 392.7,722.8 L 406.7,722.8 L 420.7,722.7 L 434.6,722.6 L 448.5,722.4 L 462.4,722.2 L 476.2,722.0 L 489.9,721.7 L 503.6,721.3 L 517.1,720.8 L 530.5,720.3 L 543.8,719.7 L 556.9,719.1 L 569.8,718.3 L 582.6,717.6 L 595.1,716.8 L 607.5,716.0 L 619.7,715.3 L 631.7,714.7 L 643.6,714.2 L 655.5,713.8 L 667.3,713.7 L 679.1,713.8 L 691.0,714.1 L 703.1,714.7 L 715.4,715.6 L 728.0,716.7 L 740.9,718.0 L 754.2,719.5 L 768.0,721.1 L 782.1,722.8 L 796.7,724.4 L 811.7,726.0 L 827.1,727.4 L 842.8,728.6 L 858.8,729.6 L 875.0,730.3 L 891.3,730.7 L 907.6,730.9 L 923.9,730.9 L 940.2,730.6 L 956.3,730.2 L 972.3,729.6 L 988.0,728.9 L 1003.6,728.2 L 1019.0,727.5 L 1034.2,726.9 L 1049.2,726.2 L 1064.0,725.7 L 1078.7,725.1 L 1093.2,724.7 L 1107.7,724.3 L 1122.0,724.0 L 1136.3,723.8 L 1150.5,723.6 L 1164.7,723.4 L 1178.9,723.3 L 1193.0,723.2 L 1207.1,723.2 L 1221.1,723.1 L 1235.2,723.1 L 1249.3,723.0 L 1263.3,723.0 L 1277.3,723.0 L 1291.4,723.0 L 1305.4,723.0 L 1319.5,723.0 L 1333.5,723.0 L 1347.6,723.0 L 1361.6,723.0 L 1375.6,723.0 L 1389.7,723.0 L 1403.7,723.0 L 1417.8,723.0 L 1431.8,723.0" stroke="#936359" stroke-width="0.51" fill="none" opacity="0.23" stroke-dasharray="1.4 9.9"/>
    <path d="M 168.2,793.2 L 182.2,793.2 L 196.3,793.2 L 210.3,793.2 L 224.4,793.2 L 238.4,793.2 L 252.4,793.2 L 266.5,793.2 L 280.5,793.2 L 294.6,793.2 L 308.6,793.2 L 322.6,793.2 L 336.7,793.2 L 350.7,793.2 L 364.7,793.2 L 378.8,793.2 L 392.8,793.2 L 406.8,793.2 L 420.9,793.1 L 434.9,793.1 L 448.9,793.1 L 462.9,793.0 L 476.8,793.0 L 490.8,792.9 L 504.7,792.8 L 518.6,792.7 L 532.5,792.6 L 546.3,792.5 L 560.1,792.3 L 573.8,792.2 L 587.5,792.0 L 601.1,791.8 L 614.6,791.7 L 628.1,791.5 L 641.6,791.4 L 655.0,791.3 L 668.5,791.2 L 681.9,791.2 L 695.3,791.3 L 708.7,791.4 L 722.2,791.6 L 735.8,791.8 L 749.4,792.1 L 763.1,792.4 L 777.0,792.7 L 791.0,793.1 L 805.1,793.4 L 819.3,793.8 L 833.6,794.1 L 848.0,794.4 L 862.6,794.7 L 877.2,794.9 L 891.8,795.0 L 906.5,795.1 L 921.1,795.1 L 935.8,795.0 L 950.5,795.0 L 965.1,794.8 L 979.7,794.7 L 994.2,794.6 L 1008.7,794.4 L 1023.1,794.2 L 1037.4,794.1 L 1051.7,793.9 L 1066.0,793.8 L 1080.2,793.7 L 1094.4,793.6 L 1108.5,793.5 L 1122.7,793.4 L 1136.8,793.4 L 1150.9,793.3 L 1165.0,793.3 L 1179.0,793.3 L 1193.1,793.2 L 1207.1,793.2 L 1221.2,793.2 L 1235.2,793.2 L 1249.3,793.2 L 1263.3,793.2 L 1277.4,793.2 L 1291.4,793.2 L 1305.4,793.2 L 1319.5,793.2 L 1333.5,793.2 L 1347.6,793.2 L 1361.6,793.2 L 1375.6,793.2 L 1389.7,793.2 L 1403.7,793.2 L 1417.8,793.2 L 1431.8,793.2" stroke="#a95d51" stroke-width="0.35" fill="none" opacity="0.14" stroke-dasharray="0.8 14.0"/>
    <path d="M 261.8,40.5 L 261.8,49.6 L 261.8,58.7 L 261.8,67.8 L 261.8,76.9 L 261.8,86.0 L 261.8,95.1 L 261.8,104.2 L 261.8,113.3 L 261.8,122.4 L 261.8,131.5 L 261.8,140.6 L 261.8,149.7 L 261.8,158.8 L 261.8,167.9 L 261.8,177.0 L 261.8,186.1 L 261.8,195.2 L 261.8,204.3 L 261.8,213.4 L 261.8,222.5 L 261.8,231.6 L 261.8,240.7 L 261.8,249.8 L 261.8,258.9 L 261.8,268.0 L 261.8,277.1 L 261.8,286.2 L 261.8,295.3 L 261.8,304.4 L 261.8,313.5 L 261.8,322.6 L 261.8,331.7 L 261.8,340.8 L 261.8,349.9 L 261.8,359.0 L 261.8,368.1 L 261.8,377.2 L 261.8,386.3 L 261.8,395.4 L 261.8,404.5 L 261.8,413.6 L 261.8,422.7 L 261.8,431.8 L 261.8,440.9 L 261.8,450.0 L 261.8,459.1 L 261.8,468.2 L 261.8,477.3 L 261.8,486.4 L 261.8,495.5 L 261.8,504.6 L 261.8,513.7 L 261.8,522.8 L 261.8,531.9 L 261.8,541.0 L 261.8,550.1 L 261.8,559.2 L 261.8,568.3 L 261.8,577.4 L 261.8,586.5 L 261.8,595.6 L 261.8,604.7 L 261.8,613.8 L 261.8,622.9 L 261.8,632.0 L 261.8,641.1 L 261.8,650.2 L 261.8,659.3 L 261.8,668.4 L 261.8,677.5 L 261.8,686.6 L 261.8,695.7 L 261.8,704.8 L 261.8,713.9 L 261.8,723.0 L 261.8,732.1 L 261.8,741.2 L 261.8,750.3 L 261.8,759.4 L 261.8,768.5 L 261.8,777.6 L 261.8,786.7 L 261.8,795.8 L 261.8,804.9 L 261.8,814.0 L 261.8,823.1 L 261.8,832.2 L 261.8,841.3 L 261.8,850.4 L 261.8,859.5" stroke="#a95d51" stroke-width="0.35" fill="none" opacity="0.14" stroke-dasharray="0.8 14.0"/>
    <path d="M 363.2,40.5 L 363.2,49.6 L 363.2,58.7 L 363.2,67.8 L 363.2,76.9 L 363.2,86.0 L 363.2,95.1 L 363.2,104.2 L 363.2,113.3 L 363.2,122.4 L 363.2,131.5 L 363.2,140.6 L 363.2,149.7 L 363.2,158.8 L 363.2,167.8 L 363.2,176.9 L 363.2,186.0 L 363.3,195.1 L 363.3,204.2 L 363.3,213.3 L 363.3,222.3 L 363.3,231.4 L 363.3,240.5 L 363.3,249.6 L 363.3,258.6 L 363.3,267.7 L 363.3,276.8 L 363.3,285.8 L 363.3,294.9 L 363.3,304.0 L 363.4,313.0 L 363.4,322.1 L 363.4,331.1 L 363.4,340.2 L 363.3,349.3 L 363.3,358.3 L 363.3,367.4 L 363.3,376.4 L 363.3,385.5 L 363.3,394.6 L 363.3,403.6 L 363.3,412.7 L 363.3,421.8 L 363.2,430.9 L 363.2,440.0 L 363.2,449.1 L 363.2,458.2 L 363.2,467.3 L 363.1,476.4 L 363.1,485.5 L 363.1,494.6 L 363.1,503.8 L 363.1,512.9 L 363.1,522.0 L 363.1,531.2 L 363.1,540.3 L 363.1,549.5 L 363.0,558.6 L 363.0,567.7 L 363.0,576.9 L 363.0,586.0 L 363.1,595.2 L 363.1,604.3 L 363.1,613.4 L 363.1,622.6 L 363.1,631.7 L 363.1,640.8 L 363.1,650.0 L 363.1,659.1 L 363.1,668.2 L 363.1,677.3 L 363.1,686.5 L 363.1,695.6 L 363.1,704.7 L 363.2,713.8 L 363.2,722.9 L 363.2,732.0 L 363.2,741.2 L 363.2,750.3 L 363.2,759.4 L 363.2,768.5 L 363.2,777.6 L 363.2,786.7 L 363.2,795.8 L 363.2,804.9 L 363.2,814.0 L 363.2,823.1 L 363.2,832.2 L 363.2,841.3 L 363.2,850.4 L 363.2,859.5" stroke="#a35d58" stroke-width="0.50" fill="none" opacity="0.22" stroke-dasharray="1.3 10.2"/>
    <path d="M 456.8,40.5 L 456.8,49.6 L 456.9,58.7 L 456.9,67.7 L 456.9,76.8 L 456.9,85.9 L 456.9,95.0 L 456.9,104.1 L 457.0,113.1 L 457.0,122.2 L 457.1,131.2 L 457.1,140.3 L 457.1,149.3 L 457.2,158.3 L 457.3,167.3 L 457.3,176.3 L 457.4,185.3 L 457.5,194.2 L 457.6,203.2 L 457.7,212.1 L 457.8,221.0 L 457.9,229.9 L 458.0,238.7 L 458.1,247.5 L 458.2,256.4 L 458.3,265.1 L 458.4,273.9 L 458.5,282.6 L 458.6,291.4 L 458.7,300.1 L 458.7,308.8 L 458.8,317.5 L 458.8,326.2 L 458.8,334.8 L 458.7,343.5 L 458.7,352.2 L 458.6,361.0 L 458.5,369.7 L 458.3,378.5 L 458.2,387.3 L 458.0,396.1 L 457.8,405.0 L 457.6,413.9 L 457.4,422.9 L 457.2,431.9 L 456.9,441.0 L 456.7,450.1 L 456.4,459.3 L 456.2,468.5 L 456.0,477.8 L 455.8,487.1 L 455.6,496.4 L 455.4,505.8 L 455.3,515.3 L 455.2,524.7 L 455.1,534.2 L 455.0,543.7 L 454.9,553.2 L 454.9,562.7 L 454.9,572.2 L 454.9,581.7 L 455.0,591.3 L 455.0,600.7 L 455.1,610.2 L 455.2,619.7 L 455.3,629.1 L 455.4,638.5 L 455.5,647.9 L 455.6,657.3 L 455.7,666.7 L 455.8,676.0 L 455.9,685.3 L 456.0,694.6 L 456.1,703.8 L 456.2,713.1 L 456.3,722.3 L 456.3,731.5 L 456.4,740.7 L 456.5,749.9 L 456.5,759.1 L 456.5,768.2 L 456.6,777.4 L 456.6,786.5 L 456.7,795.7 L 456.7,804.8 L 456.7,813.9 L 456.7,823.0 L 456.7,832.1 L 456.7,841.3 L 456.8,850.4 L 456.8,859.5" stroke="#9f5e5f" stroke-width="0.64" fill="none" opacity="0.30" stroke-dasharray="2.1 6.8"/>
    <path d="M 550.6,40.4 L 550.7,49.4 L 550.8,58.5 L 550.8,67.5 L 550.9,76.5 L 551.1,85.5 L 551.2,94.5 L 551.4,103.5 L 551.6,112.4 L 551.8,121.3 L 552.1,130.2 L 552.4,139.0 L 552.8,147.7 L 553.2,156.4 L 553.6,165.1 L 554.1,173.6 L 554.7,182.1 L 555.3,190.5 L 555.9,198.8 L 556.6,207.0 L 557.3,215.1 L 558.1,223.1 L 558.8,231.0 L 559.6,238.8 L 560.4,246.5 L 561.2,254.1 L 561.9,261.5 L 562.6,268.9 L 563.3,276.2 L 563.9,283.5 L 564.3,290.6 L 564.7,297.8 L 565.0,304.9 L 565.1,312.0 L 565.1,319.1 L 564.9,326.3 L 564.5,333.5 L 564.0,340.9 L 563.3,348.3 L 562.5,355.9 L 561.4,363.6 L 560.3,371.5 L 559.0,379.7 L 557.5,388.0 L 556.0,396.6 L 554.4,405.4 L 552.8,414.5 L 551.1,423.9 L 549.5,433.4 L 547.8,443.3 L 546.3,453.4 L 544.9,463.6 L 543.5,474.1 L 542.3,484.8 L 541.3,495.7 L 540.4,506.6 L 539.7,517.7 L 539.2,528.8 L 538.9,540.0 L 538.7,551.2 L 538.7,562.4 L 538.8,573.6 L 539.0,584.7 L 539.4,595.7 L 539.9,606.6 L 540.4,617.5 L 541.0,628.2 L 541.7,638.8 L 542.3,649.3 L 543.0,659.7 L 543.7,669.9 L 544.4,680.1 L 545.0,690.1 L 545.6,700.0 L 546.2,709.8 L 546.7,719.6 L 547.2,729.2 L 547.6,738.8 L 548.0,748.3 L 548.4,757.8 L 548.7,767.2 L 549.0,776.5 L 549.2,785.8 L 549.4,795.1 L 549.6,804.3 L 549.7,813.5 L 549.9,822.7 L 550.0,831.9 L 550.0,841.1 L 550.1,850.2 L 550.2,859.4" stroke="#9a5f66" stroke-width="0.78" fill="none" opacity="0.38" stroke-dasharray="3.4 4.1"/>
    <path d="M 644.8,40.2 L 645.0,49.2 L 645.3,58.2 L 645.6,67.1 L 646.0,76.1 L 646.5,84.9 L 647.0,93.8 L 647.7,102.6 L 648.5,111.3 L 649.4,119.9 L 650.4,128.5 L 651.6,136.9 L 652.9,145.2 L 654.4,153.4 L 656.1,161.5 L 658.0,169.5 L 660.1,177.2 L 662.4,184.8 L 664.8,192.3 L 667.5,199.5 L 670.3,206.6 L 673.2,213.5 L 676.3,220.2 L 679.4,226.7 L 682.6,233.0 L 685.8,239.2 L 689.0,245.3 L 692.1,251.2 L 695.1,257.0 L 697.8,262.7 L 700.3,268.2 L 702.5,273.7 L 704.3,279.2 L 705.7,284.6 L 706.6,289.9 L 706.9,295.2 L 706.7,300.5 L 705.9,305.8 L 704.5,311.2 L 702.4,316.6 L 699.7,322.2 L 696.3,327.9 L 692.4,333.8 L 687.9,340.0 L 682.9,346.5 L 677.5,353.4 L 671.7,360.8 L 665.6,368.7 L 659.3,377.2 L 653.0,386.4 L 646.7,396.1 L 640.5,406.6 L 634.6,417.7 L 629.1,429.5 L 624.0,441.9 L 619.5,454.8 L 615.5,468.2 L 612.3,482.0 L 609.7,496.0 L 607.8,510.3 L 606.6,524.6 L 606.1,539.0 L 606.1,553.3 L 606.7,567.4 L 607.7,581.4 L 609.2,595.1 L 610.9,608.4 L 612.9,621.5 L 615.1,634.3 L 617.4,646.7 L 619.7,658.8 L 622.0,670.5 L 624.2,682.0 L 626.4,693.2 L 628.5,704.1 L 630.4,714.8 L 632.1,725.2 L 633.8,735.5 L 635.2,745.6 L 636.5,755.5 L 637.7,765.3 L 638.7,775.0 L 639.6,784.6 L 640.3,794.1 L 641.0,803.6 L 641.5,812.9 L 642.0,822.3 L 642.4,831.5 L 642.7,840.8 L 643.0,850.0 L 643.2,859.2" stroke="#95606d" stroke-width="0.92" fill="none" opacity="0.45" stroke-dasharray="6.3 2.4"/>
    <path d="M 739.3,40.2 L 739.7,49.3 L 740.3,58.3 L 740.9,67.3 L 741.7,76.2 L 742.6,85.2 L 743.8,94.1 L 745.1,102.9 L 746.6,111.7 L 748.5,120.5 L 750.5,129.2 L 752.9,137.9 L 755.7,146.5 L 758.7,155.1 L 762.1,163.6 L 765.9,172.0 L 770.1,180.5 L 774.6,188.9 L 779.5,197.3 L 784.7,205.8 L 790.2,214.3 L 795.8,222.9 L 801.7,231.6 L 807.6,240.4 L 813.5,249.4 L 819.3,258.6 L 824.8,267.9 L 829.9,277.3 L 834.5,286.8 L 838.5,296.3 L 841.8,305.8 L 844.2,315.2 L 845.8,324.3 L 846.4,333.1 L 846.0,341.4 L 844.6,349.1 L 842.3,356.1 L 839.0,362.4 L 834.9,367.9 L 830.0,372.7 L 824.3,376.7 L 818.0,380.0 L 811.0,382.8 L 803.4,385.1 L 795.3,387.1 L 786.6,389.1 L 777.5,391.1 L 768.0,393.4 L 758.1,396.3 L 747.9,399.9 L 737.6,404.4 L 727.4,410.0 L 717.2,416.8 L 707.5,424.8 L 698.3,434.2 L 689.8,444.8 L 682.2,456.6 L 675.7,469.4 L 670.4,483.2 L 666.4,497.7 L 663.6,512.7 L 662.2,528.1 L 661.9,543.6 L 662.8,559.1 L 664.6,574.3 L 667.3,589.3 L 670.7,604.0 L 674.7,618.1 L 679.0,631.8 L 683.5,645.0 L 688.2,657.7 L 692.9,670.0 L 697.5,681.8 L 701.9,693.3 L 706.0,704.4 L 709.9,715.2 L 713.5,725.7 L 716.8,736.0 L 719.8,746.0 L 722.4,755.9 L 724.8,765.7 L 726.8,775.4 L 728.6,784.9 L 730.1,794.4 L 731.5,803.8 L 732.6,813.1 L 733.5,822.4 L 734.3,831.6 L 735.0,840.9 L 735.5,850.1 L 735.9,859.2" stroke="#906173" stroke-width="1.06" fill="none" opacity="0.53" />
    <path d="M 801.9,40.5 L 802.4,49.6 L 803.0,58.7 L 803.8,67.8 L 804.7,76.9 L 805.8,86.0 L 807.0,95.2 L 808.6,104.3 L 810.3,113.5 L 812.4,122.6 L 814.8,131.8 L 817.5,141.1 L 820.5,150.4 L 824.0,159.8 L 827.8,169.3 L 832.0,178.9 L 836.6,188.7 L 841.6,198.6 L 846.9,208.8 L 852.4,219.3 L 858.2,230.1 L 864.0,241.2 L 869.9,252.7 L 875.6,264.6 L 881.1,276.9 L 886.1,289.6 L 890.5,302.7 L 894.2,316.0 L 896.9,329.4 L 898.6,342.9 L 899.2,356.2 L 898.5,369.2 L 896.6,381.7 L 893.4,393.4 L 889.0,404.2 L 883.6,414.0 L 877.2,422.5 L 870.0,429.8 L 862.1,435.9 L 853.8,440.6 L 845.1,444.2 L 836.3,446.7 L 827.3,448.4 L 818.2,449.3 L 809.1,449.8 L 800.0,450.0 L 790.9,450.2 L 781.8,450.7 L 772.7,451.6 L 763.7,453.3 L 754.9,455.8 L 746.2,459.4 L 737.9,464.1 L 730.0,470.2 L 722.8,477.5 L 716.4,486.0 L 711.0,495.8 L 706.6,506.6 L 703.4,518.3 L 701.5,530.8 L 700.8,543.8 L 701.4,557.1 L 703.1,570.6 L 705.8,584.0 L 709.5,597.3 L 713.9,610.4 L 718.9,623.1 L 724.4,635.4 L 730.1,647.3 L 736.0,658.8 L 741.8,669.9 L 747.6,680.7 L 753.1,691.2 L 758.4,701.4 L 763.4,711.3 L 768.0,721.1 L 772.2,730.7 L 776.0,740.2 L 779.5,749.6 L 782.5,758.9 L 785.2,768.2 L 787.6,777.4 L 789.7,786.5 L 791.4,795.7 L 793.0,804.8 L 794.2,814.0 L 795.3,823.1 L 796.2,832.2 L 797.0,841.3 L 797.6,850.4 L 798.1,859.5" stroke="#8d6278" stroke-width="1.15" fill="none" opacity="0.58" />
    <path d="M 864.1,40.8 L 864.5,49.9 L 865.0,59.1 L 865.7,68.4 L 866.5,77.6 L 867.4,86.9 L 868.5,96.2 L 869.9,105.6 L 871.4,115.1 L 873.2,124.6 L 875.2,134.3 L 877.6,144.1 L 880.2,154.0 L 883.2,164.0 L 886.5,174.3 L 890.1,184.8 L 894.0,195.6 L 898.1,206.7 L 902.5,218.2 L 907.1,230.0 L 911.8,242.3 L 916.5,255.0 L 921.0,268.2 L 925.3,281.9 L 929.3,296.0 L 932.7,310.7 L 935.4,325.7 L 937.2,340.9 L 938.1,356.4 L 937.8,371.9 L 936.4,387.3 L 933.6,402.3 L 929.6,416.8 L 924.3,430.6 L 917.8,443.4 L 910.2,455.2 L 901.7,465.8 L 892.5,475.2 L 882.8,483.2 L 872.6,490.0 L 862.4,495.6 L 852.1,500.1 L 841.9,503.7 L 832.0,506.6 L 822.5,508.9 L 813.4,510.9 L 804.7,512.9 L 796.6,514.9 L 789.0,517.2 L 782.0,520.0 L 775.7,523.3 L 770.0,527.3 L 765.1,532.1 L 761.0,537.6 L 757.7,543.9 L 755.4,550.9 L 754.0,558.6 L 753.6,566.9 L 754.2,575.7 L 755.8,584.8 L 758.2,594.2 L 761.5,603.7 L 765.5,613.2 L 770.1,622.7 L 775.2,632.1 L 780.7,641.4 L 786.5,650.6 L 792.4,659.6 L 798.3,668.4 L 804.2,677.1 L 809.8,685.7 L 815.3,694.2 L 820.5,702.7 L 825.4,711.1 L 829.9,719.5 L 834.1,728.0 L 837.9,736.4 L 841.3,744.9 L 844.3,753.5 L 847.1,762.1 L 849.5,770.8 L 851.5,779.5 L 853.4,788.3 L 854.9,797.1 L 856.2,805.9 L 857.4,814.8 L 858.3,823.8 L 859.1,832.7 L 859.7,841.7 L 860.3,850.7 L 860.7,859.8" stroke="#8a627d" stroke-width="1.06" fill="none" opacity="0.53" />
    <path d="M 956.8,40.8 L 957.0,50.0 L 957.3,59.2 L 957.6,68.5 L 958.0,77.7 L 958.5,87.1 L 959.0,96.4 L 959.7,105.9 L 960.4,115.4 L 961.3,125.0 L 962.3,134.7 L 963.5,144.5 L 964.8,154.4 L 966.2,164.5 L 967.9,174.8 L 969.6,185.2 L 971.5,195.9 L 973.6,206.8 L 975.8,218.0 L 978.0,229.5 L 980.3,241.2 L 982.6,253.3 L 984.9,265.7 L 987.1,278.5 L 989.1,291.6 L 990.8,304.9 L 992.3,318.6 L 993.3,332.6 L 993.9,346.7 L 993.9,361.0 L 993.4,375.4 L 992.2,389.7 L 990.3,404.0 L 987.7,418.0 L 984.5,431.8 L 980.5,445.2 L 976.0,458.1 L 970.9,470.5 L 965.4,482.3 L 959.5,493.4 L 953.3,503.9 L 947.0,513.6 L 940.7,522.8 L 934.4,531.3 L 928.3,539.2 L 922.5,546.6 L 917.1,553.5 L 912.1,560.0 L 907.6,566.2 L 903.7,572.1 L 900.3,577.8 L 897.6,583.4 L 895.5,588.8 L 894.1,594.2 L 893.3,599.5 L 893.1,604.8 L 893.4,610.1 L 894.3,615.4 L 895.7,620.8 L 897.5,626.3 L 899.7,631.8 L 902.2,637.3 L 904.9,643.0 L 907.9,648.8 L 911.0,654.7 L 914.2,660.8 L 917.4,667.0 L 920.6,673.3 L 923.7,679.8 L 926.8,686.5 L 929.7,693.4 L 932.5,700.5 L 935.2,707.7 L 937.6,715.2 L 939.9,722.8 L 942.0,730.5 L 943.9,738.5 L 945.6,746.6 L 947.1,754.8 L 948.4,763.1 L 949.6,771.5 L 950.6,780.1 L 951.5,788.7 L 952.3,797.4 L 953.0,806.2 L 953.5,815.1 L 954.0,823.9 L 954.4,832.9 L 954.7,841.8 L 955.0,850.8 L 955.2,859.8" stroke="#856383" stroke-width="0.92" fill="none" opacity="0.45" stroke-dasharray="6.3 2.4"/>
    <path d="M 1049.8,40.6 L 1049.9,49.8 L 1050.0,58.9 L 1050.0,68.1 L 1050.1,77.3 L 1050.3,86.5 L 1050.4,95.7 L 1050.6,104.9 L 1050.8,114.2 L 1051.0,123.5 L 1051.3,132.8 L 1051.6,142.2 L 1052.0,151.7 L 1052.4,161.2 L 1052.8,170.8 L 1053.3,180.4 L 1053.8,190.2 L 1054.4,200.0 L 1055.0,209.9 L 1055.6,219.9 L 1056.3,230.1 L 1057.0,240.3 L 1057.7,250.7 L 1058.3,261.2 L 1059.0,271.8 L 1059.6,282.5 L 1060.1,293.4 L 1060.6,304.3 L 1061.0,315.3 L 1061.2,326.4 L 1061.3,337.6 L 1061.3,348.8 L 1061.1,360.0 L 1060.8,371.2 L 1060.3,382.3 L 1059.6,393.4 L 1058.7,404.3 L 1057.7,415.2 L 1056.5,425.9 L 1055.1,436.4 L 1053.7,446.6 L 1052.2,456.7 L 1050.5,466.6 L 1048.9,476.1 L 1047.2,485.5 L 1045.6,494.6 L 1044.0,503.4 L 1042.5,512.0 L 1041.0,520.3 L 1039.7,528.5 L 1038.6,536.4 L 1037.5,544.1 L 1036.7,551.7 L 1036.0,559.1 L 1035.5,566.5 L 1035.1,573.7 L 1034.9,580.9 L 1034.9,588.0 L 1035.0,595.1 L 1035.3,602.2 L 1035.7,609.4 L 1036.1,616.5 L 1036.7,623.8 L 1037.4,631.1 L 1038.1,638.5 L 1038.8,645.9 L 1039.6,653.5 L 1040.4,661.2 L 1041.2,669.0 L 1041.9,676.9 L 1042.7,684.9 L 1043.4,693.0 L 1044.1,701.2 L 1044.7,709.5 L 1045.3,717.9 L 1045.9,726.4 L 1046.4,734.9 L 1046.8,743.6 L 1047.2,752.3 L 1047.6,761.0 L 1047.9,769.8 L 1048.2,778.7 L 1048.4,787.6 L 1048.6,796.5 L 1048.8,805.5 L 1048.9,814.5 L 1049.1,823.5 L 1049.2,832.5 L 1049.2,841.5 L 1049.3,850.6 L 1049.4,859.6" stroke="#80648a" stroke-width="0.78" fill="none" opacity="0.38" stroke-dasharray="3.4 4.1"/>
    <path d="M 1143.2,40.5 L 1143.2,49.6 L 1143.3,58.7 L 1143.3,67.9 L 1143.3,77.0 L 1143.3,86.1 L 1143.3,95.2 L 1143.3,104.3 L 1143.4,113.5 L 1143.4,122.6 L 1143.5,131.8 L 1143.5,140.9 L 1143.5,150.1 L 1143.6,159.3 L 1143.7,168.5 L 1143.7,177.7 L 1143.8,186.9 L 1143.9,196.2 L 1144.0,205.4 L 1144.1,214.7 L 1144.2,224.0 L 1144.3,233.3 L 1144.4,242.7 L 1144.5,252.1 L 1144.6,261.5 L 1144.7,270.9 L 1144.8,280.3 L 1144.9,289.8 L 1145.0,299.3 L 1145.0,308.7 L 1145.1,318.3 L 1145.1,327.8 L 1145.1,337.3 L 1145.1,346.8 L 1145.0,356.3 L 1144.9,365.8 L 1144.8,375.3 L 1144.7,384.7 L 1144.6,394.2 L 1144.4,403.6 L 1144.2,412.9 L 1144.0,422.2 L 1143.8,431.5 L 1143.6,440.7 L 1143.3,449.9 L 1143.1,459.0 L 1142.8,468.1 L 1142.6,477.1 L 1142.4,486.1 L 1142.2,495.0 L 1142.0,503.9 L 1141.8,512.7 L 1141.7,521.5 L 1141.5,530.3 L 1141.4,539.0 L 1141.3,547.8 L 1141.3,556.5 L 1141.2,565.2 L 1141.2,573.8 L 1141.2,582.5 L 1141.3,591.2 L 1141.3,599.9 L 1141.4,608.6 L 1141.5,617.4 L 1141.6,626.1 L 1141.7,634.9 L 1141.8,643.6 L 1141.9,652.5 L 1142.0,661.3 L 1142.1,670.1 L 1142.2,679.0 L 1142.3,687.9 L 1142.4,696.8 L 1142.5,705.8 L 1142.6,714.7 L 1142.7,723.7 L 1142.7,732.7 L 1142.8,741.7 L 1142.9,750.7 L 1142.9,759.7 L 1142.9,768.8 L 1143.0,777.8 L 1143.0,786.9 L 1143.1,795.9 L 1143.1,805.0 L 1143.1,814.1 L 1143.1,823.2 L 1143.1,832.3 L 1143.1,841.3 L 1143.2,850.4 L 1143.2,859.5" stroke="#7b6591" stroke-width="0.64" fill="none" opacity="0.30" stroke-dasharray="2.1 6.8"/>
    <path d="M 1236.8,40.5 L 1236.8,49.6 L 1236.8,58.7 L 1236.8,67.8 L 1236.8,76.9 L 1236.8,86.0 L 1236.8,95.1 L 1236.8,104.2 L 1236.8,113.3 L 1236.8,122.4 L 1236.8,131.5 L 1236.8,140.6 L 1236.8,149.7 L 1236.8,158.8 L 1236.8,168.0 L 1236.8,177.1 L 1236.8,186.2 L 1236.9,195.3 L 1236.9,204.4 L 1236.9,213.5 L 1236.9,222.7 L 1236.9,231.8 L 1236.9,240.9 L 1236.9,250.0 L 1236.9,259.2 L 1236.9,268.3 L 1236.9,277.4 L 1236.9,286.6 L 1236.9,295.7 L 1236.9,304.8 L 1237.0,314.0 L 1237.0,323.1 L 1237.0,332.3 L 1237.0,341.4 L 1236.9,350.5 L 1236.9,359.7 L 1236.9,368.8 L 1236.9,378.0 L 1236.9,387.1 L 1236.9,396.2 L 1236.9,405.4 L 1236.9,414.5 L 1236.9,423.6 L 1236.8,432.7 L 1236.8,441.8 L 1236.8,450.9 L 1236.8,460.0 L 1236.8,469.1 L 1236.7,478.2 L 1236.7,487.3 L 1236.7,496.4 L 1236.7,505.4 L 1236.7,514.5 L 1236.7,523.6 L 1236.7,532.6 L 1236.7,541.7 L 1236.7,550.7 L 1236.6,559.8 L 1236.6,568.9 L 1236.6,577.9 L 1236.6,587.0 L 1236.7,596.0 L 1236.7,605.1 L 1236.7,614.2 L 1236.7,623.2 L 1236.7,632.3 L 1236.7,641.4 L 1236.7,650.4 L 1236.7,659.5 L 1236.7,668.6 L 1236.7,677.7 L 1236.7,686.7 L 1236.7,695.8 L 1236.7,704.9 L 1236.8,714.0 L 1236.8,723.1 L 1236.8,732.2 L 1236.8,741.2 L 1236.8,750.3 L 1236.8,759.4 L 1236.8,768.5 L 1236.8,777.6 L 1236.8,786.7 L 1236.8,795.8 L 1236.8,804.9 L 1236.8,814.0 L 1236.8,823.1 L 1236.8,832.2 L 1236.8,841.3 L 1236.8,850.4 L 1236.8,859.5" stroke="#776698" stroke-width="0.50" fill="none" opacity="0.22" stroke-dasharray="1.3 10.2"/>
    <path d="M 1338.2,40.5 L 1338.2,49.6 L 1338.2,58.7 L 1338.2,67.8 L 1338.2,76.9 L 1338.2,86.0 L 1338.2,95.1 L 1338.2,104.2 L 1338.2,113.3 L 1338.2,122.4 L 1338.2,131.5 L 1338.2,140.6 L 1338.2,149.7 L 1338.2,158.8 L 1338.2,167.9 L 1338.2,177.0 L 1338.2,186.1 L 1338.2,195.2 L 1338.2,204.3 L 1338.2,213.4 L 1338.2,222.5 L 1338.2,231.6 L 1338.2,240.7 L 1338.2,249.8 L 1338.2,258.9 L 1338.2,268.0 L 1338.2,277.1 L 1338.2,286.2 L 1338.2,295.3 L 1338.2,304.4 L 1338.2,313.5 L 1338.2,322.6 L 1338.2,331.7 L 1338.2,340.8 L 1338.2,349.9 L 1338.2,359.0 L 1338.2,368.1 L 1338.2,377.2 L 1338.2,386.3 L 1338.2,395.4 L 1338.2,404.5 L 1338.2,413.6 L 1338.2,422.7 L 1338.2,431.8 L 1338.2,440.9 L 1338.2,450.0 L 1338.2,459.1 L 1338.2,468.2 L 1338.2,477.3 L 1338.2,486.4 L 1338.2,495.5 L 1338.2,504.6 L 1338.2,513.7 L 1338.2,522.8 L 1338.2,531.9 L 1338.2,541.0 L 1338.2,550.1 L 1338.2,559.2 L 1338.2,568.3 L 1338.2,577.4 L 1338.2,586.5 L 1338.2,595.6 L 1338.2,604.7 L 1338.2,613.8 L 1338.2,622.9 L 1338.2,632.0 L 1338.2,641.1 L 1338.2,650.2 L 1338.2,659.3 L 1338.2,668.4 L 1338.2,677.5 L 1338.2,686.6 L 1338.2,695.7 L 1338.2,704.8 L 1338.2,713.9 L 1338.2,723.0 L 1338.2,732.1 L 1338.2,741.2 L 1338.2,750.3 L 1338.2,759.4 L 1338.2,768.5 L 1338.2,777.6 L 1338.2,786.7 L 1338.2,795.8 L 1338.2,804.9 L 1338.2,814.0 L 1338.2,823.1 L 1338.2,832.2 L 1338.2,841.3 L 1338.2,850.4 L 1338.2,859.5" stroke="#7267a0" stroke-width="0.35" fill="none" opacity="0.14" stroke-dasharray="0.8 14.0"/>
  </g>

  <!-- centre node glows -->
  <g id="nodes" filter="url(#glow)">
    <circle cx="701.3" cy="270.6" r="2.2" fill="#7267a0" opacity="0.12"/>
    <circle cx="842.9" cy="309.9" r="2.2" fill="#7267a0" opacity="0.19"/>
    <circle cx="899.1" cy="361.8" r="2.2" fill="#7267a0" opacity="0.21"/>
    <circle cx="935.3" cy="393.8" r="2.2" fill="#7267a0" opacity="0.19"/>
    <circle cx="992.9" cy="381.5" r="2.2" fill="#7267a0" opacity="0.12"/>
    <circle cx="704.2" cy="312.0" r="2.2" fill="#646d95" opacity="0.16"/>
    <circle cx="834.2" cy="368.7" r="2.2" fill="#646d95" opacity="0.27"/>
    <circle cx="860.9" cy="436.6" r="2.2" fill="#646d95" opacity="0.30"/>
    <circle cx="881.3" cy="484.2" r="2.2" fill="#646d95" opacity="0.27"/>
    <circle cx="964.6" cy="483.9" r="2.2" fill="#646d95" opacity="0.16"/>
    <circle cx="677.5" cy="353.4" r="2.2" fill="#58738c" opacity="0.18"/>
    <circle cx="786.6" cy="389.1" r="2.2" fill="#58738c" opacity="0.30"/>
    <circle cx="800.0" cy="450.0" r="2.2" fill="#58738c" opacity="0.38"/>
    <circle cx="813.4" cy="510.9" r="2.2" fill="#58738c" opacity="0.30"/>
    <circle cx="922.5" cy="546.6" r="2.2" fill="#58738c" opacity="0.18"/>
    <circle cx="635.4" cy="416.1" r="2.2" fill="#4c7883" opacity="0.16"/>
    <circle cx="718.7" cy="415.8" r="2.2" fill="#4c7883" opacity="0.27"/>
    <circle cx="739.1" cy="463.4" r="2.2" fill="#4c7883" opacity="0.30"/>
    <circle cx="765.8" cy="531.3" r="2.2" fill="#4c7883" opacity="0.27"/>
    <circle cx="895.8" cy="588.0" r="2.2" fill="#4c7883" opacity="0.16"/>
    <circle cx="607.1" cy="518.5" r="2.2" fill="#3f7f79" opacity="0.12"/>
    <circle cx="664.7" cy="506.2" r="2.2" fill="#3f7f79" opacity="0.19"/>
    <circle cx="700.9" cy="538.2" r="2.2" fill="#3f7f79" opacity="0.21"/>
    <circle cx="757.1" cy="590.1" r="2.2" fill="#3f7f79" opacity="0.19"/>
    <circle cx="898.7" cy="629.4" r="2.2" fill="#3f7f79" opacity="0.12"/>
  </g>

  <!-- vignette to paper at edges -->
  <rect width="1600" height="900" fill="url(#vig)"/>
</svg>
